<svg width="157" height="157" viewBox="0 0 157 157" fill="none" xmlns="http://www.w3.org/2000/svg">
<path d="M133.975 127.445C134.893 124 137.893 112.44 139.926 100.726C142.356 86.7455 144.483 67.484 134.761 59.4098C125.039 51.3357 112.28 60.9602 105.596 57.8439C98.9128 54.7276 98.6121 39.2025 80.688 34.5422C62.7639 29.8819 52.7416 46.0396 44.8429 54.7495C36.9441 63.4595 28.134 57.5432 16.599 66.8639C5.17993 76.0843 14.8639 117.817 23.3076 127.445H133.975Z" fill="url(#paint0_linear_6_3805)"/>
<path opacity="0.7" d="M133.975 127.445C134.893 124 137.893 112.44 139.926 100.726C142.356 86.7455 144.483 67.484 134.761 59.4098C125.039 51.3357 112.28 60.9602 105.596 57.8439C98.9128 54.7276 98.6121 39.2025 80.688 34.5422C62.7639 29.8819 52.7416 46.0396 44.8429 54.7495C36.9441 63.4595 28.134 57.5432 16.599 66.8639C5.17993 76.0843 14.8639 117.817 23.3076 127.445H133.975Z" fill="white"/>
<path d="M24.899 127.245C24.899 127.245 22.7067 97.4912 20.9841 90.1311C19.2615 82.771 27.7178 81.2051 39.9324 80.2655C52.1469 79.3259 57.7844 80.1089 60.4466 81.8314C63.1087 83.554 64.2895 103.89 66.0841 111.115C67.8787 118.341 69.216 127.714 69.216 127.714L24.899 127.245Z" fill="#263238" stroke="#263238" stroke-width="0.313194" stroke-linecap="round" stroke-linejoin="round"/>
<path d="M133.37 104.088C131.695 106.184 130.865 107.352 130.52 107.881C130.96 105.576 131.6 103.313 132.434 101.119C133.061 99.4183 133.453 97.6397 133.599 95.8327L133.442 95.9172L133.298 95.6385C133.355 95.6072 139.067 92.5755 140.683 89.716L140.956 89.8726C139.496 92.4533 134.986 95.0685 133.752 95.7481C134.924 95.6354 138.582 95.081 140.759 92.3907C143.374 89.1616 142.913 85.159 142.913 85.159C142.913 85.159 137.984 88.5446 135.985 91.1598C135.053 92.3557 134.271 93.6609 133.655 95.0466C133.744 92.9145 133.581 90.7795 133.17 88.6856C134.814 87.3921 140.862 82.4217 141.526 78.6947C142.296 74.3883 141.213 67 141.213 67C140.592 68.5329 139.872 70.0238 139.058 71.463C137.674 73.9247 133.364 77.7739 132.594 81.9268C132.398 82.966 132.293 84.0202 132.28 85.0776C131.586 82.7601 130.755 80.4855 129.794 78.2656C129.539 77.6713 129.33 77.0589 129.167 76.4334L129.033 76.352C129.061 76.305 131.836 71.6259 131.836 70.2823H132.149C132.149 71.5351 130.032 75.2621 129.446 76.2643C130.414 75.6818 131.992 74.4885 132.578 72.6344C133.461 69.8814 132.155 67.4009 132.155 67.4009C132.155 67.4009 129.816 70.846 129.177 73.0384C128.874 74.0414 128.695 75.0772 128.641 76.1234C128.193 74.9833 127.507 73.4361 126.718 72.3869C125.334 70.5391 124.41 67.7705 124.41 67.7705C124.41 67.7705 122.719 70.6926 123.949 73.7713C124.961 76.2987 127.839 77.2696 128.835 77.5296C128.945 77.8647 129.067 78.1904 129.202 78.5036C130.549 81.5539 131.604 84.7251 132.352 87.9746C131.635 87.0194 130.282 85.3375 129.001 84.3979C127.141 83.0324 125.453 80.6396 125.453 80.6396C125.453 80.6396 124.682 83.9282 126.752 86.5183C128.444 88.6323 131.45 88.7357 132.503 88.7106C133.214 92.4377 133.295 96.3275 132.089 100.086C132.011 99.3561 131.573 97.3705 129.155 95.1499C126.104 92.3312 120 83.3738 120 83.3738C120 83.3738 120.485 93.9629 123.411 97.4425C126.092 100.634 131.153 100.446 131.986 100.393C131.93 100.559 131.873 100.725 131.811 100.891C129.884 106.068 129.477 109.698 129.43 111.618H125.829V128.392H135.832V111.627H130.101C130.138 110.533 130.251 109.442 130.439 108.364L130.335 108.392L130.251 108.079C130.313 108.063 136.581 106.297 140.962 101.79L141.188 102.006C137.652 105.645 132.91 107.518 131.09 108.138C132.9 107.916 137.32 107.249 139.371 105.921C141.989 104.229 144.298 99.1494 144.298 99.1494C144.298 99.1494 135.832 101.01 133.37 104.088ZM128.61 76.8406C127.586 76.2962 126.694 75.5321 126 74.603C125.306 73.6738 124.826 72.6026 124.595 71.4662L124.908 71.4035C125.127 72.4924 125.585 73.5192 126.248 74.41C126.911 75.3009 127.764 76.0336 128.744 76.5556L128.61 76.8406ZM133.038 88.7921L132.973 88.8829L132.854 88.8328C132.678 88.7639 128.585 87.0789 126.918 84.6454L127.178 84.4669C128.635 86.5997 132.161 88.197 132.854 88.4945C133.383 87.6802 136.709 82.5188 137.865 79.2741L138.159 79.3806C136.894 82.9322 133.079 88.7263 133.038 88.7858V88.7921ZM131.582 100.277C131.535 100.261 126.655 98.4228 124.482 94.2072L124.761 94.0663C126.878 98.1722 131.651 99.9668 131.692 99.9856L131.582 100.277Z" fill="#263238"/>
<path d="M62.7924 84.6251C62.7924 84.6251 53.8632 86.52 46.4217 90.7136C38.9802 94.9073 33.1642 98.2898 33.1642 99.909C33.1642 101.528 30.1857 127.238 30.1857 127.238H97.8357C97.8357 127.238 91.2054 113.032 90.1248 106.943C89.0443 100.855 87.8228 96.9212 84.3057 93.0094C80.7885 89.0976 70.5032 84.0864 62.7924 84.6251Z" fill="white"/>
<path d="M36.5654 109.414C37.5677 108.7 39.5721 114.137 40.1421 112.86C40.7121 111.582 36.5654 105.133 36.2804 102.837C35.9954 100.542 38.7108 100.26 41.8616 98.1144C45.0123 95.969 47.8718 94.2496 47.8718 97.1122C47.8718 99.9748 49.159 105.255 50.1612 103.122C51.1634 100.99 53.3088 98.2585 53.4498 101.976C53.5907 105.694 53.4498 109.418 53.882 109.418C54.3142 109.418 58.1727 105.412 59.175 103.407C60.1772 101.403 58.0287 96.254 58.0287 93.9646C58.0287 91.6751 60.0331 88.5275 60.0331 88.5275L60.1615 85.286C56.9575 86.1629 51.3639 87.9325 46.4217 90.7168C38.9802 94.8979 33.1642 98.2898 33.1642 99.909C33.1642 101.528 30.1857 127.238 30.1857 127.238H33.8876C34.5767 120.871 35.8576 109.931 36.5654 109.414Z" fill="url(#paint1_linear_6_3805)"/>
<path opacity="0.5" d="M36.5654 109.414C37.5677 108.7 39.5721 114.137 40.1421 112.86C40.7121 111.582 36.5654 105.133 36.2804 102.837C35.9954 100.542 38.7108 100.26 41.8616 98.1144C45.0123 95.969 47.8718 94.2496 47.8718 97.1122C47.8718 99.9748 49.159 105.255 50.1612 103.122C51.1634 100.99 53.3088 98.2585 53.4498 101.976C53.5907 105.694 53.4498 109.418 53.882 109.418C54.3142 109.418 58.1727 105.412 59.175 103.407C60.1772 101.403 58.0287 96.254 58.0287 93.9646C58.0287 91.6751 60.0331 88.5275 60.0331 88.5275L60.1615 85.286C56.9575 86.1629 51.3639 87.9325 46.4217 90.7168C38.9802 94.8979 33.1642 98.2898 33.1642 99.909C33.1642 101.528 30.1857 127.238 30.1857 127.238H33.8876C34.5767 120.871 35.8576 109.931 36.5654 109.414Z" fill="white"/>
<path d="M79.6854 90.9423C79.6854 90.9423 84.3833 93.238 86.1591 95.5368C84.7318 93.0708 82.5812 91.1028 79.9986 89.8993L79.6854 90.9423Z" fill="#263238" stroke="#263238" stroke-width="0.313194" stroke-linecap="round" stroke-linejoin="round"/>
<path d="M62.7924 84.6251C62.7924 84.6251 53.8632 86.52 46.4217 90.7136C38.9802 94.9073 33.1642 98.2898 33.1642 99.909C33.1642 101.528 30.1857 127.238 30.1857 127.238H97.8357C97.8357 127.238 91.2054 113.032 90.1248 106.943C89.0443 100.855 87.8228 96.9212 84.3057 93.0094C80.7885 89.0976 70.5032 84.0864 62.7924 84.6251Z" stroke="#263238" stroke-width="0.313194" stroke-linecap="round" stroke-linejoin="round"/>
<path d="M59.82 85.5741C58.609 86.3257 57.5959 87.3567 56.8657 88.5806C56.1355 89.8046 55.7094 91.1858 55.6232 92.6084C55.3538 97.4786 55.6232 102.487 55.3538 105.189C55.0845 107.892 53.1897 110.063 54.6773 109.925C56.165 109.787 59.5475 104.378 60.7658 104.378C61.9842 104.378 62.3882 106.95 62.93 107.761C63.4718 108.572 65.3729 108.913 65.3729 108.913C65.3729 108.913 67.1237 106.815 67.1237 106.138C67.1237 105.462 66.5818 103.16 68.0633 103.432C69.5447 103.705 72.7956 108.844 72.9334 107.219C73.0712 105.593 71.4426 103.147 71.4426 99.2388C71.4426 95.3301 69.5635 90.7136 66.8449 87.8729C64.1264 85.0323 62.5886 85.3643 59.82 85.5741Z" fill="white"/>
<path d="M60.1522 85.5459L59.8171 85.5741C58.6061 86.3257 57.593 87.3567 56.8628 88.5807C56.1325 89.8046 55.7065 91.1858 55.6203 92.6085C55.3509 97.4786 55.6203 102.487 55.3509 105.189C55.1755 106.931 54.333 108.447 54.1482 109.261C55.1411 108.531 58.2855 105.174 59.175 103.395C60.1772 101.394 58.0287 96.2415 58.0287 93.9521C58.0287 91.6626 60.0332 88.515 60.0332 88.515L60.1522 85.5459Z" fill="url(#paint2_linear_6_3805)"/>
<path opacity="0.5" d="M60.1522 85.5459L59.8171 85.5741C58.6061 86.3257 57.593 87.3567 56.8628 88.5807C56.1325 89.8046 55.7065 91.1858 55.6203 92.6085C55.3509 97.4786 55.6203 102.487 55.3509 105.189C55.1755 106.931 54.333 108.447 54.1482 109.261C55.1411 108.531 58.2855 105.174 59.175 103.395C60.1772 101.394 58.0287 96.2415 58.0287 93.9521C58.0287 91.6626 60.0332 88.515 60.0332 88.515L60.1522 85.5459Z" fill="white"/>
<path d="M59.82 85.5741C58.609 86.3257 57.5959 87.3567 56.8657 88.5806C56.1355 89.8046 55.7094 91.1858 55.6232 92.6084C55.3538 97.4786 55.6232 102.487 55.3538 105.189C55.0845 107.892 53.1897 110.063 54.6773 109.925C56.165 109.787 59.5475 104.378 60.7658 104.378C61.9842 104.378 62.3882 106.95 62.93 107.761C63.4718 108.572 65.3729 108.913 65.3729 108.913C65.3729 108.913 67.1237 106.815 67.1237 106.138C67.1237 105.462 66.5818 103.16 68.0633 103.432C69.5447 103.705 72.7956 108.844 72.9334 107.219C73.0712 105.593 71.4426 103.147 71.4426 99.2388C71.4426 95.3301 69.5635 90.7136 66.8449 87.8729C64.1264 85.0323 62.5886 85.3643 59.82 85.5741Z" stroke="#263238" stroke-width="0.313194" stroke-linecap="round" stroke-linejoin="round"/>
<path d="M60.9446 85.6086C59.9049 88.0898 59.354 90.7484 59.3222 93.4384C59.3222 97.7166 61.5334 102.142 62.4197 104.206C63.3061 106.27 65.37 108.926 65.37 108.926C65.37 108.926 65.2197 103.47 66.5476 100.814C67.8756 98.1583 69.0532 96.2415 69.0532 96.2415C69.0532 96.2415 67.4308 94.6192 65.0693 90.9329C62.7078 87.2466 60.9446 85.6086 60.9446 85.6086Z" fill="white"/>
<path d="M68.0293 97.9985L67.4749 94.353C66.8266 93.5136 66.0092 92.3798 65.0727 90.9078C62.7143 87.2184 60.9448 85.5835 60.9448 85.5835C59.9051 88.0647 59.3543 90.7233 59.3224 93.4134C59.356 95.0941 59.6292 96.7614 60.1336 98.365L67.9635 98.1144L68.0293 97.9985Z" fill="url(#paint3_linear_6_3805)"/>
<path opacity="0.5" d="M68.0293 97.9985L67.4749 94.353C66.8266 93.5136 66.0092 92.3798 65.0727 90.9078C62.7143 87.2184 60.9448 85.5835 60.9448 85.5835C59.9051 88.0647 59.3543 90.7233 59.3224 93.4134C59.356 95.0941 59.6292 96.7614 60.1336 98.365L67.9635 98.1144L68.0293 97.9985Z" fill="white"/>
<path d="M65.0728 90.9205C62.7145 87.2311 60.9449 85.5962 60.9449 85.5962C59.9053 88.0774 59.3544 90.736 59.3226 93.4261C59.3296 94.3086 59.4135 95.1889 59.5732 96.0569L66.1753 96.2605L67.7882 94.754C66.8192 93.5227 65.9129 92.2432 65.0728 90.9205Z" fill="#263238" stroke="#263238" stroke-width="0.313194" stroke-linecap="round" stroke-linejoin="round"/>
<path d="M60.9446 85.6086C59.9049 88.0898 59.354 90.7484 59.3222 93.4384C59.3222 97.7166 61.5334 102.142 62.4197 104.206C63.3061 106.27 65.37 108.926 65.37 108.926C65.37 108.926 65.2197 103.47 66.5476 100.814C67.8756 98.1583 69.0532 96.2415 69.0532 96.2415C69.0532 96.2415 67.4308 94.6192 65.0693 90.9329C62.7078 87.2466 60.9446 85.6086 60.9446 85.6086Z" stroke="#263238" stroke-width="0.313194" stroke-linecap="round" stroke-linejoin="round"/>
<path d="M51.0229 95.0451C51.0229 95.0451 53.9982 87.873 58.8684 86.1159" stroke="#263238" stroke-width="0.313194" stroke-linecap="round" stroke-linejoin="round"/>
<path d="M38.1693 100.996C38.1693 100.996 42.2408 107.626 42.7701 113.307" stroke="#263238" stroke-width="0.313194" stroke-linecap="round" stroke-linejoin="round"/>
<path d="M43.1737 107.084C43.1737 107.084 44.5267 115.609 44.5267 119.925C44.5053 122.377 44.732 124.826 45.2032 127.232" stroke="#263238" stroke-width="0.313194" stroke-linecap="round" stroke-linejoin="round"/>
<path d="M44.3924 118.043C45.1573 114.716 45.5211 111.309 45.4761 107.895" stroke="#263238" stroke-width="0.313194" stroke-linecap="round" stroke-linejoin="round"/>
<path d="M81.4616 107.219C81.4616 107.219 81.8688 112.092 82.8146 118.043C83.7605 123.994 84.3023 126.972 84.3023 126.972" stroke="#263238" stroke-width="0.313194" stroke-linecap="round" stroke-linejoin="round"/>
<path d="M59.3941 118.76C59.3941 118.76 56.5284 124.595 56.1056 125.444C55.6828 126.293 55.0438 127.777 55.0438 127.777H60.1333C60.1333 127.777 62.9959 125.867 63.3153 125.76C63.6348 125.654 65.4356 125.76 66.7072 125.231C67.9788 124.701 69.2535 123.32 70.525 123.004C71.7966 122.688 73.4941 122.155 74.0266 122.155C74.559 122.155 76.3599 122.685 77.5249 122.685C78.69 122.685 80.1777 121.519 79.2381 120.99C78.2985 120.461 77.5406 120.777 76.269 120.141C74.9975 119.506 74.5715 119.293 73.2999 119.515C72.0284 119.737 70.9667 118.986 67.8911 118.35C64.8155 117.714 61.3015 117.489 59.3941 118.76Z" fill="white" stroke="#263238" stroke-width="0.313194" stroke-linecap="round" stroke-linejoin="round"/>
<path d="M68.2764 115.503C68.2764 115.503 69.9457 114.081 71.3175 114.767C72.6893 115.453 72.0535 119.869 72.398 121.635C72.7426 123.402 73.134 124.332 72.2508 124.432C71.3676 124.532 71.0231 123.843 70.3372 122.274C69.6513 120.705 68.2764 115.503 68.2764 115.503Z" fill="white" stroke="#263238" stroke-width="0.313194" stroke-linecap="round" stroke-linejoin="round"/>
<path d="M64.205 116.386C64.205 116.386 66.4131 114.422 67.3933 114.422C68.3736 114.422 69.1598 117.905 69.8989 119.434C70.638 120.962 71.7217 122.772 71.2707 123.255C70.8197 123.737 69.8958 123.94 69.1097 123.107C68.3235 122.274 66.6041 118.594 66.1187 118.005C65.5268 117.414 64.8867 116.872 64.205 116.386Z" fill="white" stroke="#263238" stroke-width="0.313194" stroke-linecap="round" stroke-linejoin="round"/>
<path d="M61.947 117.072C61.947 117.072 62.0942 116.386 64.2051 116.386C66.316 116.386 68.1294 119.33 69.4041 120.016C70.6788 120.702 70.2874 120.996 69.3572 121.438C68.427 121.88 67.835 121.391 65.9715 120.361C64.108 119.33 61.947 117.072 61.947 117.072Z" fill="white" stroke="#263238" stroke-width="0.313194" stroke-linecap="round" stroke-linejoin="round"/>
<path d="M59.6042 121.942L61.0919 119.502C61.7833 119.639 62.4351 119.929 62.9992 120.351C63.7415 120.978 65.1195 122.262 66.817 122.262C68.5146 122.262 69.0439 121.732 68.4081 121.2C67.7723 120.668 65.8618 119.715 64.4838 118.76C63.1057 117.805 62.044 116.217 60.9854 116.533C59.9268 116.85 59.1939 118.867 58.0163 121.519" fill="white"/>
<path d="M59.6042 121.942L61.0919 119.502C61.7833 119.639 62.4351 119.929 62.9992 120.351C63.7415 120.978 65.1195 122.262 66.817 122.262C68.5146 122.262 69.0439 121.732 68.4081 121.2C67.7723 120.668 65.8618 119.715 64.4838 118.76C63.1057 117.805 62.044 116.217 60.9854 116.533C59.9268 116.85 59.1939 118.867 58.0163 121.519" stroke="#263238" stroke-width="0.313194" stroke-linecap="round" stroke-linejoin="round"/>
<path d="M83.3376 75.2168C83.3376 75.2168 82.9273 81.2771 82.2728 83.4068C81.6182 85.5365 80.7068 92.0917 78.7493 94.9574C76.7919 97.8232 74.2456 100.282 71.3767 100.448C68.5079 100.614 64.6618 95.5306 62.4475 92.2546C60.2333 88.9785 59.9921 85.7025 59.253 82.5079C58.5138 79.3134 58.3541 75.6177 59.5004 72.7582C60.6467 69.8987 66.3907 66.369 71.2139 66.7793C76.0371 67.1896 82.1068 69.7296 83.3376 71.6119C83.6882 72.1477 83.875 72.7741 83.875 73.4143C83.875 74.0546 83.6882 74.681 83.3376 75.2168Z" fill="white"/>
<path d="M59.5066 72.7582C58.3603 75.6271 58.5231 79.3134 59.2591 82.5079C59.9951 85.7025 60.2426 88.9785 62.4537 92.2546C64.6649 95.5306 68.5172 100.611 71.3829 100.448C72.5621 100.349 73.6939 99.9381 74.662 99.2576L73.2057 99.3985C70.199 99.6835 68.7677 97.6822 66.9073 93.8174C65.047 89.9526 66.1933 87.6663 65.476 86.949C64.7588 86.2318 64.762 81.0829 64.762 81.0829C64.762 81.0829 65.3351 78.7935 65.6201 77.951C65.9051 77.1085 68.9118 75.9465 68.9118 75.9465C68.9118 75.9465 68.9118 78.0919 70.9726 77.9353C73.0334 77.7787 74.4929 75.5174 74.4929 75.5174L74.2048 67.271C73.2218 67.0446 72.2246 66.8856 71.22 66.795C66.3968 66.369 60.6466 69.8925 59.5066 72.7582Z" fill="url(#paint4_linear_6_3805)"/>
<path opacity="0.5" d="M59.5066 72.7582C58.3603 75.6271 58.5231 79.3134 59.2591 82.5079C59.9951 85.7025 60.2426 88.9785 62.4537 92.2546C64.6649 95.5306 68.5172 100.611 71.3829 100.448C72.5621 100.349 73.6939 99.9381 74.662 99.2576L73.2057 99.3985C70.199 99.6835 68.7677 97.6822 66.9073 93.8174C65.047 89.9526 66.1933 87.6663 65.476 86.949C64.7588 86.2318 64.762 81.0829 64.762 81.0829C64.762 81.0829 65.3351 78.7935 65.6201 77.951C65.9051 77.1085 68.9118 75.9465 68.9118 75.9465C68.9118 75.9465 68.9118 78.0919 70.9726 77.9353C73.0334 77.7787 74.4929 75.5174 74.4929 75.5174L74.2048 67.271C73.2218 67.0446 72.2246 66.8856 71.22 66.795C66.3968 66.369 60.6466 69.8925 59.5066 72.7582Z" fill="white"/>
<path d="M83.3376 75.2168C83.3376 75.2168 82.9273 81.2771 82.2728 83.4068C81.6182 85.5365 80.7068 92.0917 78.7493 94.9574C76.7919 97.8232 74.2456 100.282 71.3767 100.448C68.5079 100.614 64.6618 95.5306 62.4475 92.2546C60.2333 88.9785 59.9921 85.7025 59.253 82.5079C58.5138 79.3134 58.3541 75.6177 59.5004 72.7582C60.6467 69.8987 66.3907 66.369 71.2139 66.7793C76.0371 67.1896 82.1068 69.7296 83.3376 71.6119C83.6882 72.1477 83.875 72.7741 83.875 73.4143C83.875 74.0546 83.6882 74.681 83.3376 75.2168V75.2168Z" stroke="#263238" stroke-width="0.313194" stroke-linecap="round" stroke-linejoin="round"/>
<path d="M75.0635 83.3254C75.0635 83.3254 75.1449 87.5034 77.2746 88.5683C77.345 88.5939 77.4088 88.635 77.461 88.6887C77.5133 88.7423 77.5528 88.8071 77.5766 88.8782C77.6004 88.9492 77.6078 89.0247 77.5984 89.099C77.5889 89.1733 77.5629 89.2446 77.5221 89.3074C77.2746 89.8805 75.3923 90.2063 74.0769 89.2228" stroke="#263238" stroke-width="0.313194" stroke-linecap="round" stroke-linejoin="round"/>
<path d="M76.8739 79.7769C76.777 79.7768 76.6826 79.7468 76.6034 79.691C76.5243 79.6352 76.4643 79.5563 76.4318 79.4651C76.3992 79.3739 76.3956 79.2749 76.4215 79.1815C76.4474 79.0882 76.5014 79.0052 76.5763 78.9438C76.6515 78.8811 78.4555 77.4279 81.3244 78.4333C81.4419 78.4748 81.5381 78.5613 81.5919 78.6738C81.6456 78.7863 81.6525 78.9155 81.6109 79.033C81.5694 79.1506 81.4829 79.2468 81.3704 79.3005C81.2579 79.3543 81.1287 79.3611 81.0112 79.3196C78.6403 78.4865 77.1871 79.6579 77.1745 79.6704C77.0898 79.7399 76.9834 79.7775 76.8739 79.7769Z" fill="#263238"/>
<path d="M71.9374 79.2037C71.8552 79.2044 71.7742 79.1834 71.7027 79.1427C71.6312 79.1019 71.5717 79.0431 71.5303 78.972C71.4802 78.8874 70.3527 77.0333 68.1352 77.3402C68.0119 77.3572 67.8869 77.3245 67.7876 77.2493C67.6884 77.1741 67.623 77.0627 67.6059 76.9393C67.5898 76.8158 67.6227 76.6908 67.6977 76.5913C67.7726 76.4917 67.8836 76.4255 68.0068 76.4069C70.8632 76.0123 72.2819 78.3957 72.3414 78.499C72.4041 78.6066 72.4214 78.7347 72.3897 78.8551C72.358 78.9755 72.2798 79.0783 72.1723 79.1411C72.101 79.1825 72.0199 79.2041 71.9374 79.2037Z" fill="#263238"/>
<path d="M73.3343 93.7234H74.6591" stroke="#263238" stroke-width="0.313194" stroke-linecap="round" stroke-linejoin="round"/>
<path d="M61.3012 63.2653C61.3012 63.2653 55.9769 64.9878 55.5666 67.1176C55.1563 69.2473 57.8623 76.7013 57.7809 77.6002C57.6994 78.4991 56.8789 79.2413 57.7809 80.5505C58.6829 81.8596 60.3177 83.8265 60.9754 82.7616C61.6332 81.6968 60.728 80.1402 61.7929 79.4856C62.8577 78.831 64.3329 77.7662 63.5123 76.3725C62.6917 74.9788 63.1052 72.9273 64.8246 72.6862C66.544 72.445 68.0192 71.2956 67.1172 72.6047C66.2152 73.9139 63.5969 77.1116 64.9875 77.3559C66.378 77.6002 71.8777 73.9108 71.8777 73.9108C71.8777 73.9108 69.9986 77.6691 70.9757 77.9228C71.9529 78.1765 79.6606 73.0902 79.6606 73.0902C79.6606 73.0902 83.3469 77.9228 84.0829 77.5939C84.8189 77.2651 84.3304 74.5653 84.3304 74.5653C84.3304 74.5653 84.9035 78.1702 86.0498 78.3237C87.1961 78.4771 88.7527 76.5197 88.2609 75.2919C87.7692 74.0642 86.9424 72.3479 86.9424 72.3479C86.9424 72.3479 88.5804 71.9376 89.235 71.1985C89.8896 70.4594 89.8081 70.3811 88.4144 70.1336C87.0207 69.8862 85.959 68.3328 84.6561 66.939C83.3532 65.5453 81.2109 63.663 81.2109 63.663C81.2109 63.663 83.6664 64.7279 82.3572 63.5002C81.0481 62.2724 74.0826 59.485 70.3149 59.485C66.5472 59.485 65.1441 61.455 65.1441 61.455C65.1441 61.455 65.7986 58.9964 65.0595 59.3253C64.3204 59.6541 63.4935 61.6179 63.4935 61.6179C63.4935 61.6179 61.7741 61.1262 60.8752 61.7024C59.9764 62.2787 59.7258 62.8487 60.4649 62.8487C60.8799 62.8432 61.2935 62.898 61.6927 63.0116L61.3012 63.2653Z" fill="#263238"/>
<g opacity="0.2">
<path opacity="0.2" d="M60.9754 82.7522C61.63 81.6874 60.728 80.1308 61.7929 79.4762C62.8577 78.8216 64.3329 77.7568 63.5123 76.3631C62.6917 74.9693 63.1052 72.9179 64.8246 72.6768C66.1181 72.492 67.2738 71.7967 67.3834 72.0253C67.9378 71.2611 68.1758 70.6786 67.3834 70.9135C65.8613 71.3707 61.1446 72.1318 61.5987 73.6539C62.0528 75.176 62.3598 75.934 61.1446 76.3912C59.9294 76.8485 59.9262 77.9134 59.9262 79.1317C59.9262 80.1715 59.4345 81.8972 59.2999 82.3764C59.9607 82.9965 60.6153 83.3379 60.9754 82.7522Z" fill="white"/>
<path opacity="0.2" d="M84.3208 74.5622L84.4273 76.0874C84.4273 76.0874 84.4492 76.1783 84.4774 76.3286C84.4753 75.765 84.4271 75.2025 84.3333 74.6467C84.4304 75.1886 84.9973 78.1796 86.0402 78.3299C87.1865 78.4928 88.7431 76.5259 88.2514 75.2982C88.1449 75.0351 88.0228 74.747 87.9006 74.4588C87.5216 75.0508 87.0017 75.6302 86.4067 75.6302C85.1884 75.6302 84.3208 74.5622 84.3208 74.5622Z" fill="white"/>
<path opacity="0.2" d="M82.7019 76.6731C81.6934 74.4056 80.5878 71.4647 80.0147 70.6097C79.1033 69.241 75.9055 74.2615 73.1682 75.934C72.0501 76.6168 71.2452 76.9143 70.7347 76.9206C70.6345 77.4436 70.6689 77.8601 70.9665 77.9196C71.9499 78.1671 79.6514 73.0871 79.6514 73.0871C80.6045 74.3351 81.6228 75.5322 82.7019 76.6731Z" fill="white"/>
<path opacity="0.2" d="M64.6648 76.4601C64.5145 76.9331 64.5709 77.2713 64.978 77.3465C66.0303 77.5313 69.4128 75.4673 71.0101 74.4588C71.9153 73.347 73.0365 72.6611 73.1587 71.6745C73.309 70.4562 67.5212 75.3264 65.5512 76.2409C65.2814 76.3939 64.9748 76.4697 64.6648 76.4601Z" fill="white"/>
</g>
<path d="M61.3012 63.2653C61.3012 63.2653 55.9769 64.9878 55.5666 67.1176C55.1563 69.2473 57.8623 76.7013 57.7809 77.6002C57.6994 78.4991 56.8789 79.2413 57.7809 80.5505C58.6829 81.8596 60.3177 83.8265 60.9754 82.7616C61.6332 81.6968 60.728 80.1402 61.7929 79.4856C62.8577 78.831 64.3329 77.7662 63.5123 76.3725C62.6917 74.9788 63.1052 72.9273 64.8246 72.6862C66.544 72.445 68.0192 71.2956 67.1172 72.6047C66.2152 73.9139 63.5969 77.1116 64.9875 77.3559C66.3781 77.6002 71.8777 73.9108 71.8777 73.9108C71.8777 73.9108 69.9986 77.6691 70.9757 77.9228C71.9529 78.1765 79.6606 73.0902 79.6606 73.0902C79.6606 73.0902 83.3469 77.9228 84.0829 77.5939C84.8189 77.2651 84.3304 74.5653 84.3304 74.5653C84.3304 74.5653 84.9035 78.1702 86.0498 78.3237C87.1961 78.4771 88.7527 76.5197 88.2609 75.2919C87.7692 74.0642 86.9424 72.3479 86.9424 72.3479C86.9424 72.3479 88.5804 71.9376 89.235 71.1985C89.8896 70.4594 89.8081 70.3811 88.4144 70.1336C87.0207 69.8862 85.959 68.3328 84.6561 66.939C83.3532 65.5453 81.2109 63.663 81.2109 63.663C81.2109 63.663 83.6664 64.7279 82.3572 63.5002C81.0481 62.2724 74.0826 59.485 70.3149 59.485C66.5472 59.485 65.1441 61.455 65.1441 61.455C65.1441 61.455 65.7986 58.9964 65.0595 59.3253C64.3204 59.6541 63.4935 61.6179 63.4935 61.6179C63.4935 61.6179 61.7741 61.1262 60.8752 61.7024C59.9764 62.2787 59.7258 62.8487 60.4649 62.8487C60.8799 62.8432 61.2935 62.898 61.6927 63.0116L61.3012 63.2653Z" stroke="#263238" stroke-width="0.313194" stroke-linecap="round" stroke-linejoin="round"/>
<path d="M73.4095 80.0901C73.4095 80.0901 72.2131 78.8028 68.9934 78.8937C65.7738 78.9845 63.4718 79.5389 62.8298 79.9084C62.1877 80.278 62.5542 80.7353 62.7358 81.3804C62.9175 82.0256 63.381 85.0573 64.117 86.2537C64.853 87.4501 66.7854 88.4618 68.0727 88.4618C69.3599 88.4618 70.0959 88.1862 71.4771 87.1745C72.8583 86.1629 73.7759 82.4766 73.8699 82.2073C73.9638 81.9379 73.8699 81.3804 74.7875 81.6561C75.7052 81.9317 75.7992 85.9781 76.0779 86.8081C76.3567 87.6381 78.192 88.7374 79.664 88.7374C81.136 88.7374 82.5172 88.0014 83.7136 85.8873C84.4281 84.6312 84.7181 83.1779 84.5404 81.7437C84.5404 81.7437 85.8276 80.7321 84.816 80.3626C83.8044 79.993 80.3248 79.0283 78.1011 79.7205C75.4327 80.5505 74.0515 80.3657 73.4095 80.0901Z" fill="#263238"/>
<path d="M63.2906 79.9993L57.1238 80.8261V81.5621L63.1966 81.1957C63.1966 81.1957 62.6391 80.2749 63.2906 79.9993Z" fill="#263238"/>
<path d="M79.6609 87.8416C77.8569 87.8416 76.9361 86.8833 76.7357 85.2202C76.4945 83.2283 76.2815 81.8408 75.6552 81.1737C76.5765 81.0643 77.4849 80.865 78.3674 80.5787C78.8842 80.4353 79.4191 80.3678 79.9553 80.3782C81.3225 80.4161 82.6784 80.6383 83.9861 81.0391L83.5633 81.3773L83.6573 81.9066C83.7924 83.1333 83.5382 84.3714 82.9307 85.4457C81.7186 87.5942 80.4909 87.8416 79.6609 87.8416ZM68.0727 87.566C67.1331 87.566 65.4701 86.7423 64.8813 85.7839C64.4083 85.0198 64.0137 83.0842 63.8007 82.0475C63.7162 81.6279 63.6535 81.3241 63.6003 81.133C63.5471 80.942 63.5032 80.8355 63.4531 80.6977L63.4249 80.6194C64.1484 80.3062 66.1967 79.874 69.0186 79.7925H69.3318C71.8029 79.7925 72.755 80.6945 72.7769 80.7039L72.9053 80.8449L73.0807 80.92C73.2006 80.969 73.3229 81.0118 73.4471 81.0484C73.2333 81.2807 73.0946 81.5722 73.0494 81.8847V81.9442C73.0494 81.9599 73.0212 82.035 72.9899 82.1478C72.0753 85.3768 71.283 86.235 70.9823 86.4542C69.645 87.4032 69.0875 87.566 68.0727 87.566Z" fill="url(#paint5_linear_6_3805)"/>
<path d="M65.9057 81.2896H65.4327C65.4023 81.2888 65.3732 81.2764 65.3517 81.2548C65.3301 81.2333 65.3176 81.2042 65.3169 81.1737C65.3169 81.143 65.3291 81.1135 65.3508 81.0918C65.3725 81.0701 65.402 81.0579 65.4327 81.0579H65.9057C65.9209 81.0579 65.9359 81.0609 65.95 81.0667C65.9641 81.0725 65.9768 81.081 65.9876 81.0918C65.9984 81.1026 66.0069 81.1153 66.0127 81.1294C66.0185 81.1435 66.0215 81.1585 66.0215 81.1737C66.0208 81.2042 66.0083 81.2333 65.9867 81.2548C65.9652 81.2764 65.9361 81.2888 65.9057 81.2896ZM66.0215 81.7124C66.0215 81.6972 66.0185 81.6821 66.0127 81.6681C66.0069 81.654 65.9984 81.6413 65.9876 81.6305C65.9768 81.6197 65.9641 81.6112 65.95 81.6054C65.9359 81.5996 65.9209 81.5966 65.9057 81.5966H65.4327C65.402 81.5966 65.3725 81.6088 65.3508 81.6305C65.3291 81.6522 65.3169 81.6817 65.3169 81.7124C65.3176 81.7429 65.3301 81.7719 65.3517 81.7935C65.3732 81.8151 65.4023 81.8275 65.4327 81.8283H65.9057C65.9361 81.8275 65.9652 81.8151 65.9867 81.7935C66.0083 81.7719 66.0208 81.7429 66.0215 81.7124ZM66.0215 82.2511C66.0208 82.2206 66.0083 82.1916 65.9867 82.1701C65.9652 82.1485 65.9361 82.136 65.9057 82.1353H65.4327C65.4023 82.136 65.3732 82.1485 65.3517 82.1701C65.3301 82.1916 65.3176 82.2206 65.3169 82.2511C65.3169 82.2819 65.3291 82.3113 65.3508 82.3331C65.3725 82.3548 65.402 82.367 65.4327 82.367H65.9057C65.9209 82.367 65.9359 82.364 65.95 82.3582C65.9641 82.3524 65.9768 82.3438 65.9876 82.3331C65.9984 82.3223 66.0069 82.3095 66.0127 82.2955C66.0185 82.2814 66.0215 82.2664 66.0215 82.2511ZM66.0215 82.7898C66.0208 82.7593 66.0083 82.7303 65.9867 82.7088C65.9652 82.6872 65.9361 82.6747 65.9057 82.6739H65.4327C65.4023 82.6747 65.3732 82.6872 65.3517 82.7088C65.3301 82.7303 65.3176 82.7593 65.3169 82.7898C65.3169 82.8206 65.3291 82.85 65.3508 82.8718C65.3725 82.8935 65.402 82.9057 65.4327 82.9057H65.9057C65.9209 82.9057 65.9359 82.9027 65.95 82.8969C65.9641 82.8911 65.9768 82.8825 65.9876 82.8718C65.9984 82.861 66.0069 82.8482 66.0127 82.8342C66.0185 82.8201 66.0215 82.805 66.0215 82.7898ZM66.0215 83.3285C66.0208 83.298 66.0083 83.269 65.9867 83.2475C65.9652 83.2259 65.9361 83.2134 65.9057 83.2126H65.4327C65.4023 83.2134 65.3732 83.2259 65.3517 83.2475C65.3301 83.269 65.3176 83.298 65.3169 83.3285C65.3169 83.3593 65.3291 83.3887 65.3508 83.4105C65.3725 83.4322 65.402 83.4444 65.4327 83.4444H65.9057C65.9209 83.4444 65.9359 83.4414 65.95 83.4356C65.9641 83.4298 65.9768 83.4212 65.9876 83.4105C65.9984 83.3997 66.0069 83.3869 66.0127 83.3729C66.0185 83.3588 66.0215 83.3437 66.0215 83.3285ZM66.0215 83.8672C66.0208 83.8367 66.0083 83.8077 65.9867 83.7862C65.9652 83.7646 65.9361 83.7521 65.9057 83.7513H65.4327C65.4023 83.7521 65.3732 83.7646 65.3517 83.7862C65.3301 83.8077 65.3176 83.8367 65.3169 83.8672C65.3169 83.898 65.3291 83.9274 65.3508 83.9492C65.3725 83.9709 65.402 83.9831 65.4327 83.9831H65.9057C65.9209 83.9831 65.9359 83.9801 65.95 83.9743C65.9641 83.9685 65.9768 83.9599 65.9876 83.9492C65.9984 83.9384 66.0069 83.9256 66.0127 83.9116C66.0185 83.8975 66.0215 83.8824 66.0215 83.8672ZM66.0215 84.4059C66.0208 84.3754 66.0083 84.3464 65.9867 84.3249C65.9652 84.3033 65.9361 84.2908 65.9057 84.29H65.4327C65.4049 84.2946 65.3796 84.3089 65.3613 84.3304C65.343 84.3519 65.333 84.3793 65.333 84.4075C65.333 84.4357 65.343 84.463 65.3613 84.4845C65.3796 84.506 65.4049 84.5204 65.4327 84.5249H65.9057C65.9367 84.5241 65.9662 84.5112 65.9878 84.489C66.0094 84.4667 66.0216 84.4369 66.0215 84.4059ZM66.0215 84.9446C66.0208 84.9141 66.0083 84.8851 65.9867 84.8635C65.9652 84.842 65.9361 84.8295 65.9057 84.8287H65.4327C65.4049 84.8333 65.3796 84.8476 65.3613 84.8691C65.343 84.8906 65.333 84.9179 65.333 84.9462C65.333 84.9744 65.343 85.0017 65.3613 85.0232C65.3796 85.0447 65.4049 85.0591 65.4327 85.0636H65.9057C65.9367 85.0628 65.9662 85.0499 65.9878 85.0277C66.0094 85.0054 66.0216 84.9756 66.0215 84.9446ZM67.7848 81.1863C67.7853 81.1709 67.7826 81.1557 67.7769 81.1414C67.7712 81.1272 67.7627 81.1142 67.7519 81.1034C67.741 81.0925 67.7281 81.084 67.7138 81.0783C67.6995 81.0727 67.6843 81.07 67.6689 81.0704H66.4318C66.4165 81.07 66.4012 81.0727 66.387 81.0783C66.3727 81.084 66.3598 81.0925 66.3489 81.1034C66.3381 81.1142 66.3296 81.1272 66.3239 81.1414C66.3182 81.1557 66.3155 81.1709 66.3159 81.1863C66.3159 81.217 66.3282 81.2465 66.3499 81.2682C66.3716 81.2899 66.4011 81.3022 66.4318 81.3022H67.6689C67.6853 81.3023 67.7014 81.2989 67.7164 81.2923C67.7313 81.2857 67.7447 81.276 67.7557 81.2639C67.7666 81.2518 67.7749 81.2375 67.7799 81.2219C67.7849 81.2064 67.7866 81.19 67.7848 81.1737V81.1863ZM67.7848 81.725C67.7853 81.7096 67.7826 81.6944 67.7769 81.6801C67.7712 81.6659 67.7627 81.6529 67.7519 81.6421C67.741 81.6312 67.7281 81.6227 67.7138 81.617C67.6995 81.6114 67.6843 81.6087 67.6689 81.6091H66.4318C66.4165 81.6087 66.4012 81.6114 66.387 81.617C66.3727 81.6227 66.3598 81.6312 66.3489 81.6421C66.3381 81.6529 66.3296 81.6659 66.3239 81.6801C66.3182 81.6944 66.3155 81.7096 66.3159 81.725C66.3159 81.7557 66.3282 81.7852 66.3499 81.8069C66.3716 81.8286 66.4011 81.8408 66.4318 81.8408H67.6689C67.6853 81.8409 67.7014 81.8376 67.7164 81.831C67.7313 81.8244 67.7447 81.8147 67.7557 81.8026C67.7666 81.7905 67.7749 81.7762 67.7799 81.7606C67.7849 81.7451 67.7866 81.7287 67.7848 81.7124V81.725ZM67.7848 82.2637C67.7848 82.2329 67.7726 82.2035 67.7509 82.1817C67.7292 82.16 67.6997 82.1478 67.6689 82.1478H66.4318C66.4011 82.1478 66.3716 82.16 66.3499 82.1817C66.3282 82.2035 66.3159 82.2329 66.3159 82.2637C66.3155 82.279 66.3182 82.2943 66.3239 82.3085C66.3296 82.3228 66.3381 82.3357 66.3489 82.3466C66.3598 82.3574 66.3727 82.3659 66.387 82.3716C66.4012 82.3773 66.4165 82.38 66.4318 82.3795H67.6689C67.6854 82.3802 67.7018 82.3772 67.717 82.3707C67.7322 82.3643 67.7458 82.3547 67.7569 82.3424C67.7679 82.3302 67.7762 82.3156 67.781 82.2999C67.7858 82.2841 67.7871 82.2675 67.7848 82.2511V82.2637ZM67.7848 82.8024C67.7848 82.7716 67.7726 82.7422 67.7509 82.7204C67.7292 82.6987 67.6997 82.6865 67.6689 82.6865H66.4318C66.4011 82.6865 66.3716 82.6987 66.3499 82.7204C66.3282 82.7422 66.3159 82.7716 66.3159 82.8024C66.3155 82.8177 66.3182 82.833 66.3239 82.8472C66.3296 82.8615 66.3381 82.8744 66.3489 82.8853C66.3598 82.8961 66.3727 82.9046 66.387 82.9103C66.4012 82.916 66.4165 82.9187 66.4318 82.9182H67.6689C67.6854 82.9189 67.7018 82.9159 67.717 82.9094C67.7322 82.903 67.7458 82.8934 67.7569 82.8811C67.7679 82.8689 67.7762 82.8543 67.781 82.8386C67.7858 82.8228 67.7871 82.8062 67.7848 82.7898V82.8024ZM67.7848 83.3411C67.7848 83.3103 67.7726 83.2808 67.7509 83.2591C67.7292 83.2374 67.6997 83.2252 67.6689 83.2252H66.4318C66.4011 83.2252 66.3716 83.2374 66.3499 83.2591C66.3282 83.2808 66.3159 83.3103 66.3159 83.3411C66.3155 83.3564 66.3182 83.3716 66.3239 83.3859C66.3296 83.4002 66.3381 83.4131 66.3489 83.424C66.3598 83.4348 66.3727 83.4433 66.387 83.449C66.4012 83.4547 66.4165 83.4574 66.4318 83.4569H67.6689C67.6854 83.4576 67.7018 83.4545 67.717 83.4481C67.7322 83.4417 67.7458 83.432 67.7569 83.4198C67.7679 83.4076 67.7762 83.393 67.781 83.3773C67.7858 83.3615 67.7871 83.3449 67.7848 83.3285V83.3411ZM69.2694 83.8797C69.2686 83.8487 69.2557 83.8193 69.2334 83.7976C69.2112 83.776 69.1814 83.7639 69.1504 83.7639H67.9132C67.8828 83.7647 67.8537 83.7771 67.8322 83.7987C67.8106 83.8202 67.7981 83.8493 67.7974 83.8797C67.7974 83.9105 67.8096 83.94 67.8313 83.9617C67.853 83.9834 67.8825 83.9956 67.9132 83.9956H69.1504C69.1669 83.9962 69.1835 83.9932 69.1988 83.9868C69.2141 83.9804 69.2279 83.9708 69.2392 83.9586C69.2505 83.9464 69.259 83.9319 69.2642 83.9162C69.2694 83.9004 69.2712 83.8837 69.2694 83.8672V83.8797ZM69.2694 84.4184C69.2686 84.3874 69.2557 84.3579 69.2334 84.3363C69.2112 84.3147 69.1814 84.3026 69.1504 84.3026H67.9132C67.8854 84.3071 67.8601 84.3214 67.8418 84.343C67.8235 84.3645 67.8135 84.3918 67.8135 84.42C67.8135 84.4482 67.8235 84.4755 67.8418 84.4971C67.8601 84.5186 67.8854 84.5329 67.9132 84.5375H69.1504C69.1671 84.5376 69.1837 84.5341 69.199 84.5274C69.2143 84.5206 69.228 84.5107 69.2393 84.4983C69.2505 84.4859 69.259 84.4712 69.2642 84.4553C69.2694 84.4394 69.2711 84.4226 69.2694 84.4059V84.4184ZM69.2694 84.9571C69.2686 84.9261 69.2557 84.8966 69.2334 84.875C69.2112 84.8534 69.1814 84.8412 69.1504 84.8413H67.9132C67.8854 84.8458 67.8601 84.8601 67.8418 84.8816C67.8235 84.9032 67.8135 84.9305 67.8135 84.9587C67.8135 84.9869 67.8235 85.0142 67.8418 85.0358C67.8601 85.0573 67.8854 85.0716 67.9132 85.0762H69.1504C69.1671 85.0762 69.1837 85.0728 69.199 85.0661C69.2143 85.0593 69.228 85.0494 69.2393 85.037C69.2505 85.0246 69.259 85.0099 69.2642 84.994C69.2694 84.9781 69.2711 84.9613 69.2694 84.9446V84.9571ZM68.3298 81.1988C68.3298 81.1631 68.3156 81.1288 68.2903 81.1036C68.2651 81.0783 68.2308 81.0641 68.1951 81.0641C68.1594 81.0641 68.1251 81.0783 68.0999 81.1036C68.0746 81.1288 68.0604 81.1631 68.0604 81.1988C68.0604 81.2345 68.0746 81.2688 68.0999 81.294C68.1251 81.3193 68.1594 81.3335 68.1951 81.3335C68.2151 81.3338 68.235 81.3297 68.2532 81.3214C68.2714 81.3132 68.2875 81.3009 68.3004 81.2856C68.3133 81.2703 68.3227 81.2524 68.3277 81.233C68.3328 81.2136 68.3335 81.1934 68.3298 81.1737V81.1988ZM68.7338 81.1988C68.7338 81.1631 68.7196 81.1288 68.6944 81.1036C68.6691 81.0783 68.6349 81.0641 68.5991 81.0641C68.5634 81.0641 68.5292 81.0783 68.5039 81.1036C68.4786 81.1288 68.4645 81.1631 68.4645 81.1988C68.4645 81.2345 68.4786 81.2688 68.5039 81.294C68.5292 81.3193 68.5634 81.3335 68.5991 81.3335C68.6191 81.3338 68.639 81.3297 68.6572 81.3214C68.6754 81.3132 68.6916 81.3009 68.7045 81.2856C68.7173 81.2703 68.7267 81.2524 68.7318 81.233C68.7368 81.2136 68.7375 81.1934 68.7338 81.1737V81.1988ZM69.1378 81.1988C69.1378 81.1631 69.1236 81.1288 69.0984 81.1036C69.0731 81.0783 69.0389 81.0641 69.0032 81.0641C68.9674 81.0641 68.9332 81.0783 68.9079 81.1036C68.8827 81.1288 68.8685 81.1631 68.8685 81.1988C68.8685 81.2345 68.8827 81.2688 68.9079 81.294C68.9332 81.3193 68.9674 81.3335 69.0032 81.3335C69.0232 81.3338 69.043 81.3297 69.0612 81.3214C69.0794 81.3132 69.0956 81.3009 69.1085 81.2856C69.1214 81.2703 69.1307 81.2524 69.1358 81.233C69.1409 81.2136 69.1416 81.1934 69.1378 81.1737V81.1988ZM69.545 81.1988C69.5456 81.1714 69.5381 81.1445 69.5233 81.1214C69.5085 81.0983 69.4872 81.0802 69.4621 81.0693C69.437 81.0584 69.4092 81.0552 69.3823 81.0601C69.3553 81.0651 69.3305 81.078 69.3109 81.0971C69.2913 81.1162 69.2779 81.1408 69.2723 81.1676C69.2667 81.1944 69.2693 81.2223 69.2796 81.2477C69.2899 81.273 69.3076 81.2947 69.3303 81.31C69.353 81.3253 69.3798 81.3335 69.4072 81.3335C69.4273 81.3337 69.4472 81.3296 69.4655 81.3213C69.4838 81.3131 69.5001 81.3009 69.5133 81.2857C69.5264 81.2705 69.536 81.2526 69.5415 81.2332C69.547 81.2139 69.5482 81.1936 69.545 81.1737V81.1988ZM69.949 81.1988C69.949 81.1631 69.9348 81.1288 69.9096 81.1036C69.8843 81.0783 69.85 81.0641 69.8143 81.0641C69.7786 81.0641 69.7444 81.0783 69.7191 81.1036C69.6938 81.1288 69.6797 81.1631 69.6797 81.1988C69.6797 81.2345 69.6938 81.2688 69.7191 81.294C69.7444 81.3193 69.7786 81.3335 69.8143 81.3335C69.8343 81.3338 69.8542 81.3297 69.8724 81.3214C69.8906 81.3132 69.9067 81.3009 69.9196 81.2856C69.9325 81.2703 69.9419 81.2524 69.9469 81.233C69.952 81.2136 69.9527 81.1934 69.949 81.1737V81.1988ZM70.353 81.1988C70.353 81.1631 70.3388 81.1288 70.3136 81.1036C70.2883 81.0783 70.2541 81.0641 70.2183 81.0641C70.1826 81.0641 70.1484 81.0783 70.1231 81.1036C70.0979 81.1288 70.0837 81.1631 70.0837 81.1988C70.0837 81.2345 70.0979 81.2688 70.1231 81.294C70.1484 81.3193 70.1826 81.3335 70.2183 81.3335C70.2384 81.3338 70.2582 81.3297 70.2764 81.3214C70.2946 81.3132 70.3108 81.3009 70.3237 81.2856C70.3366 81.2703 70.3459 81.2524 70.351 81.233C70.356 81.2136 70.3567 81.1934 70.353 81.1737V81.1988ZM68.3298 82.2762C68.3298 82.2405 68.3156 82.2062 68.2903 82.181C68.2651 82.1557 68.2308 82.1415 68.1951 82.1415C68.1594 82.1415 68.1251 82.1557 68.0999 82.181C68.0746 82.2062 68.0604 82.2405 68.0604 82.2762C68.0604 82.3119 68.0746 82.3462 68.0999 82.3714C68.1251 82.3967 68.1594 82.4109 68.1951 82.4109C68.2151 82.4112 68.235 82.4071 68.2532 82.3988C68.2714 82.3905 68.2875 82.3783 68.3004 82.363C68.3133 82.3477 68.3227 82.3297 68.3277 82.3104C68.3328 82.291 68.3335 82.2708 68.3298 82.2511V82.2762ZM68.7338 82.2762C68.7338 82.2405 68.7196 82.2062 68.6944 82.181C68.6691 82.1557 68.6349 82.1415 68.5991 82.1415C68.5634 82.1415 68.5292 82.1557 68.5039 82.181C68.4786 82.2062 68.4645 82.2405 68.4645 82.2762C68.4645 82.3119 68.4786 82.3462 68.5039 82.3714C68.5292 82.3967 68.5634 82.4109 68.5991 82.4109C68.6191 82.4112 68.639 82.4071 68.6572 82.3988C68.6754 82.3905 68.6916 82.3783 68.7045 82.363C68.7173 82.3477 68.7267 82.3297 68.7318 82.3104C68.7368 82.291 68.7375 82.2708 68.7338 82.2511V82.2762ZM69.1378 82.2762C69.1378 82.2405 69.1236 82.2062 69.0984 82.181C69.0731 82.1557 69.0389 82.1415 69.0032 82.1415C68.9674 82.1415 68.9332 82.1557 68.9079 82.181C68.8827 82.2062 68.8685 82.2405 68.8685 82.2762C68.8685 82.3119 68.8827 82.3462 68.9079 82.3714C68.9332 82.3967 68.9674 82.4109 69.0032 82.4109C69.0232 82.4112 69.043 82.4071 69.0612 82.3988C69.0794 82.3905 69.0956 82.3783 69.1085 82.363C69.1214 82.3477 69.1307 82.3297 69.1358 82.3104C69.1409 82.291 69.1416 82.2708 69.1378 82.2511V82.2762ZM69.545 82.2762C69.5456 82.2488 69.5381 82.2219 69.5233 82.1988C69.5085 82.1757 69.4872 82.1576 69.4621 82.1467C69.437 82.1358 69.4092 82.1326 69.3823 82.1375C69.3553 82.1425 69.3305 82.1554 69.3109 82.1745C69.2913 82.1936 69.2779 82.2182 69.2723 82.245C69.2667 82.2718 69.2693 82.2997 69.2796 82.325C69.2899 82.3504 69.3076 82.3721 69.3303 82.3874C69.353 82.4027 69.3798 82.4109 69.4072 82.4109C69.4273 82.4111 69.4472 82.407 69.4655 82.3987C69.4838 82.3905 69.5001 82.3783 69.5133 82.3631C69.5264 82.3479 69.536 82.33 69.5415 82.3106C69.547 82.2913 69.5482 82.271 69.545 82.2511V82.2762ZM69.949 82.2762C69.949 82.2405 69.9348 82.2062 69.9096 82.181C69.8843 82.1557 69.85 82.1415 69.8143 82.1415C69.7786 82.1415 69.7444 82.1557 69.7191 82.181C69.6938 82.2062 69.6797 82.2405 69.6797 82.2762C69.6797 82.3119 69.6938 82.3462 69.7191 82.3714C69.7444 82.3967 69.7786 82.4109 69.8143 82.4109C69.8343 82.4112 69.8542 82.4071 69.8724 82.3988C69.8906 82.3905 69.9067 82.3783 69.9196 82.363C69.9325 82.3477 69.9419 82.3297 69.9469 82.3104C69.952 82.291 69.9527 82.2708 69.949 82.2511V82.2762ZM70.353 82.2762C70.353 82.2405 70.3388 82.2062 70.3136 82.181C70.2883 82.1557 70.2541 82.1415 70.2183 82.1415C70.1826 82.1415 70.1484 82.1557 70.1231 82.181C70.0979 82.2062 70.0837 82.2405 70.0837 82.2762C70.0837 82.3119 70.0979 82.3462 70.1231 82.3714C70.1484 82.3967 70.1826 82.4109 70.2183 82.4109C70.2384 82.4112 70.2582 82.4071 70.2764 82.3988C70.2946 82.3905 70.3108 82.3783 70.3237 82.363C70.3366 82.3477 70.3459 82.3297 70.351 82.3104C70.356 82.291 70.3567 82.2708 70.353 82.2511V82.2762ZM69.7266 83.8265C69.7266 83.7999 69.7187 83.7738 69.7039 83.7517C69.6891 83.7295 69.6681 83.7123 69.6435 83.7021C69.6189 83.6919 69.5918 83.6892 69.5657 83.6944C69.5396 83.6996 69.5156 83.7124 69.4967 83.7313C69.4779 83.7501 69.4651 83.7741 69.4599 83.8002C69.4547 83.8264 69.4573 83.8534 69.4675 83.878C69.4777 83.9026 69.495 83.9237 69.5171 83.9385C69.5393 83.9533 69.5653 83.9612 69.592 83.9612C69.6106 83.9593 69.6287 83.9536 69.645 83.9444C69.6613 83.9352 69.6756 83.9227 69.6868 83.9076C69.698 83.8926 69.7059 83.8754 69.7101 83.8571C69.7142 83.8388 69.7146 83.8199 69.711 83.8014L69.7266 83.8265ZM70.1307 83.8265C70.1307 83.7908 70.1165 83.7565 70.0912 83.7313C70.066 83.706 70.0317 83.6918 69.996 83.6918C69.9603 83.6918 69.926 83.706 69.9008 83.7313C69.8755 83.7565 69.8613 83.7908 69.8613 83.8265C69.8613 83.8622 69.8755 83.8965 69.9008 83.9217C69.926 83.947 69.9603 83.9612 69.996 83.9612C70.0146 83.9593 70.0327 83.9536 70.049 83.9444C70.0654 83.9352 70.0796 83.9227 70.0908 83.9076C70.102 83.8926 70.1099 83.8754 70.1141 83.8571C70.1183 83.8388 70.1186 83.8199 70.115 83.8014L70.1307 83.8265ZM70.5347 83.8265C70.5347 83.7908 70.5205 83.7565 70.4952 83.7313C70.47 83.706 70.4357 83.6918 70.4 83.6918C70.3643 83.6918 70.33 83.706 70.3048 83.7313C70.2795 83.7565 70.2653 83.7908 70.2653 83.8265C70.2653 83.8622 70.2795 83.8965 70.3048 83.9217C70.33 83.947 70.3643 83.9612 70.4 83.9612C70.4187 83.9593 70.4367 83.9536 70.4531 83.9444C70.4694 83.9352 70.4836 83.9227 70.4948 83.9076C70.506 83.8926 70.514 83.8754 70.5181 83.8571C70.5223 83.8388 70.5226 83.8199 70.519 83.8014L70.5347 83.8265ZM70.9387 83.8265C70.9387 83.7908 70.9245 83.7565 70.8993 83.7313C70.874 83.706 70.8397 83.6918 70.804 83.6918C70.7683 83.6918 70.7341 83.706 70.7088 83.7313C70.6835 83.7565 70.6693 83.7908 70.6693 83.8265C70.6693 83.8622 70.6835 83.8965 70.7088 83.9217C70.7341 83.947 70.7683 83.9612 70.804 83.9612C70.8227 83.9593 70.8408 83.9536 70.8571 83.9444C70.8734 83.9352 70.8876 83.9227 70.8988 83.9076C70.91 83.8926 70.918 83.8754 70.9221 83.8571C70.9263 83.8388 70.9266 83.8199 70.923 83.8014L70.9387 83.8265ZM71.3458 83.8265C71.3465 83.799 71.3388 83.7719 71.3239 83.7488C71.309 83.7256 71.2875 83.7075 71.2622 83.6967C71.2369 83.6859 71.209 83.6829 71.182 83.6881C71.1549 83.6933 71.1301 83.7065 71.1106 83.726C71.0912 83.7454 71.078 83.7703 71.0728 83.7973C71.0676 83.8243 71.0705 83.8523 71.0814 83.8776C71.0922 83.9029 71.1103 83.9244 71.1335 83.9393C71.1566 83.9542 71.1837 83.9618 71.2112 83.9612C71.2298 83.9593 71.2479 83.9536 71.2642 83.9444C71.2806 83.9352 71.2948 83.9227 71.306 83.9076C71.3172 83.8926 71.3251 83.8754 71.3293 83.8571C71.3335 83.8388 71.3338 83.8199 71.3302 83.8014L71.3458 83.8265ZM71.7499 83.8265C71.7499 83.7908 71.7357 83.7565 71.7104 83.7313C71.6852 83.706 71.6509 83.6918 71.6152 83.6918C71.5795 83.6918 71.5452 83.706 71.52 83.7313C71.4947 83.7565 71.4805 83.7908 71.4805 83.8265C71.4805 83.8622 71.4947 83.8965 71.52 83.9217C71.5452 83.947 71.5795 83.9612 71.6152 83.9612C71.6327 83.9578 71.6494 83.951 71.6643 83.9411C71.6792 83.9312 71.692 83.9185 71.7019 83.9036C71.7118 83.8887 71.7187 83.8721 71.7221 83.8545C71.7255 83.837 71.7253 83.8189 71.7217 83.8014L71.7499 83.8265ZM69.7266 84.9383C69.7266 84.9026 69.7124 84.8684 69.6872 84.8431C69.6619 84.8179 69.6277 84.8037 69.592 84.8037C69.5562 84.8037 69.522 84.8179 69.4967 84.8431C69.4715 84.8684 69.4573 84.9026 69.4573 84.9383C69.4573 84.9741 69.4715 85.0083 69.4967 85.0336C69.522 85.0588 69.5562 85.073 69.592 85.073C69.6277 85.073 69.6619 85.0588 69.6872 85.0336C69.7124 85.0083 69.7266 84.9741 69.7266 84.9383ZM70.1307 84.9383C70.1307 84.9026 70.1165 84.8684 70.0912 84.8431C70.066 84.8179 70.0317 84.8037 69.996 84.8037C69.9603 84.8037 69.926 84.8179 69.9008 84.8431C69.8755 84.8684 69.8613 84.9026 69.8613 84.9383C69.8621 84.9738 69.8766 85.0076 69.9016 85.0327C69.9267 85.0578 69.9605 85.0722 69.996 85.073C70.0146 85.0712 70.0327 85.0655 70.049 85.0562C70.0654 85.047 70.0796 85.0345 70.0908 85.0195C70.102 85.0044 70.1099 84.9872 70.1141 84.9689C70.1183 84.9506 70.1186 84.9317 70.115 84.9133L70.1307 84.9383ZM70.5347 84.9383C70.5347 84.9026 70.5205 84.8684 70.4952 84.8431C70.47 84.8179 70.4357 84.8037 70.4 84.8037C70.3643 84.8037 70.33 84.8179 70.3048 84.8431C70.2795 84.8684 70.2653 84.9026 70.2653 84.9383C70.2661 84.9738 70.2806 85.0076 70.3057 85.0327C70.3307 85.0578 70.3645 85.0722 70.4 85.073C70.4187 85.0712 70.4367 85.0655 70.4531 85.0562C70.4694 85.047 70.4836 85.0345 70.4948 85.0195C70.506 85.0044 70.514 84.9872 70.5181 84.9689C70.5223 84.9506 70.5226 84.9317 70.519 84.9133L70.5347 84.9383ZM70.9387 84.9383C70.9387 84.9026 70.9245 84.8684 70.8993 84.8431C70.874 84.8179 70.8397 84.8037 70.804 84.8037C70.7683 84.8037 70.7341 84.8179 70.7088 84.8431C70.6835 84.8684 70.6693 84.9026 70.6693 84.9383C70.6701 84.9738 70.6846 85.0076 70.7097 85.0327C70.7348 85.0578 70.7686 85.0722 70.804 85.073C70.8227 85.0712 70.8408 85.0655 70.8571 85.0562C70.8734 85.047 70.8876 85.0345 70.8988 85.0195C70.91 85.0044 70.918 84.9872 70.9221 84.9689C70.9263 84.9506 70.9266 84.9317 70.923 84.9133L70.9387 84.9383ZM71.3458 84.9383C71.3409 84.9058 71.3244 84.876 71.2994 84.8546C71.2744 84.8331 71.2426 84.8213 71.2096 84.8213C71.1767 84.8213 71.1448 84.8331 71.1198 84.8546C71.0948 84.876 71.0783 84.9058 71.0734 84.9383C71.0783 84.9709 71.0948 85.0007 71.1198 85.0221C71.1448 85.0436 71.1767 85.0554 71.2096 85.0554C71.2426 85.0554 71.2744 85.0436 71.2994 85.0221C71.3244 85.0007 71.3409 84.9709 71.3458 84.9383ZM71.7499 84.9383C71.7499 84.9026 71.7357 84.8684 71.7104 84.8431C71.6852 84.8179 71.6509 84.8037 71.6152 84.8037C71.5795 84.8037 71.5452 84.8179 71.52 84.8431C71.4947 84.8684 71.4805 84.9026 71.4805 84.9383C71.4805 84.9741 71.4947 85.0083 71.52 85.0336C71.5452 85.0588 71.5795 85.073 71.6152 85.073C71.6502 85.0655 71.6809 85.0446 71.7008 85.0147C71.7207 84.9849 71.7282 84.9485 71.7217 84.9133L71.7499 84.9383Z" fill="#263238"/>
<path d="M79.0046 91.2318H78.5348C78.5037 91.2318 78.4739 91.2197 78.4517 91.1981C78.4295 91.1764 78.4166 91.1469 78.4158 91.1159C78.4158 91.1004 78.4189 91.0851 78.4249 91.0708C78.4309 91.0566 78.4397 91.0437 78.4508 91.0329C78.4619 91.0221 78.475 91.0136 78.4895 91.0079C78.5039 91.0023 78.5193 90.9996 78.5348 91H79.0046C79.0199 90.9996 79.0352 91.0023 79.0494 91.008C79.0637 91.0137 79.0766 91.0222 79.0875 91.033C79.0983 91.0439 79.1068 91.0568 79.1125 91.0711C79.1182 91.0853 79.1209 91.1006 79.1204 91.1159C79.1204 91.1467 79.1082 91.1761 79.0865 91.1979C79.0648 91.2196 79.0353 91.2318 79.0046 91.2318ZM79.1204 91.6546C79.1209 91.6393 79.1182 91.624 79.1125 91.6098C79.1068 91.5955 79.0983 91.5826 79.0875 91.5717C79.0766 91.5609 79.0637 91.5524 79.0494 91.5467C79.0352 91.541 79.0199 91.5383 79.0046 91.5387H78.5348C78.5193 91.5383 78.5039 91.541 78.4895 91.5466C78.475 91.5523 78.4619 91.5607 78.4508 91.5716C78.4397 91.5824 78.4309 91.5953 78.4249 91.6095C78.4189 91.6238 78.4158 91.6391 78.4158 91.6546C78.4166 91.6856 78.4295 91.7151 78.4517 91.7368C78.4739 91.7584 78.5037 91.7705 78.5348 91.7705H79.0046C79.0198 91.7705 79.0349 91.7675 79.0489 91.7617C79.063 91.7559 79.0757 91.7473 79.0865 91.7366C79.0973 91.7258 79.1058 91.713 79.1116 91.699C79.1174 91.6849 79.1204 91.6698 79.1204 91.6546ZM79.1204 92.1933C79.1204 92.1626 79.1082 92.1331 79.0865 92.1114C79.0648 92.0896 79.0353 92.0774 79.0046 92.0774H78.5348C78.5037 92.0774 78.4739 92.0895 78.4517 92.1112C78.4295 92.1328 78.4166 92.1623 78.4158 92.1933C78.4158 92.2088 78.4189 92.2241 78.4249 92.2384C78.4309 92.2527 78.4397 92.2656 78.4508 92.2764C78.4619 92.2872 78.475 92.2957 78.4895 92.3013C78.5039 92.3069 78.5193 92.3096 78.5348 92.3092H79.0046C79.0199 92.3096 79.0352 92.3069 79.0494 92.3013C79.0637 92.2956 79.0766 92.2871 79.0875 92.2762C79.0983 92.2654 79.1068 92.2524 79.1125 92.2382C79.1182 92.2239 79.1209 92.2087 79.1204 92.1933ZM79.1204 92.732C79.1204 92.7013 79.1082 92.6718 79.0865 92.6501C79.0648 92.6283 79.0353 92.6161 79.0046 92.6161H78.5348C78.5037 92.6161 78.4739 92.6282 78.4517 92.6499C78.4295 92.6715 78.4166 92.701 78.4158 92.732C78.4158 92.7475 78.4189 92.7628 78.4249 92.7771C78.4309 92.7914 78.4397 92.8043 78.4508 92.8151C78.4619 92.8259 78.475 92.8343 78.4895 92.84C78.5039 92.8456 78.5193 92.8483 78.5348 92.8479H79.0046C79.0199 92.8483 79.0352 92.8456 79.0494 92.84C79.0637 92.8343 79.0766 92.8258 79.0875 92.8149C79.0983 92.8041 79.1068 92.7911 79.1125 92.7769C79.1182 92.7626 79.1209 92.7473 79.1204 92.732ZM79.1204 93.2707C79.1204 93.24 79.1082 93.2105 79.0865 93.1888C79.0648 93.167 79.0353 93.1548 79.0046 93.1548H78.5348C78.5037 93.1548 78.4739 93.1669 78.4517 93.1886C78.4295 93.2102 78.4166 93.2397 78.4158 93.2707C78.4158 93.2862 78.4189 93.3015 78.4249 93.3158C78.4309 93.3301 78.4397 93.343 78.4508 93.3538C78.4619 93.3646 78.475 93.373 78.4895 93.3787C78.5039 93.3843 78.5193 93.387 78.5348 93.3866H79.0046C79.0199 93.387 79.0352 93.3843 79.0494 93.3786C79.0637 93.373 79.0766 93.3645 79.0875 93.3536C79.0983 93.3428 79.1068 93.3298 79.1125 93.3156C79.1182 93.3013 79.1209 93.286 79.1204 93.2707ZM79.1204 93.8094C79.1204 93.7787 79.1082 93.7492 79.0865 93.7275C79.0648 93.7057 79.0353 93.6935 79.0046 93.6935H78.5348C78.5037 93.6935 78.4739 93.7056 78.4517 93.7273C78.4295 93.7489 78.4166 93.7784 78.4158 93.8094C78.4158 93.8249 78.4189 93.8402 78.4249 93.8545C78.4309 93.8688 78.4397 93.8817 78.4508 93.8925C78.4619 93.9033 78.475 93.9117 78.4895 93.9174C78.5039 93.923 78.5193 93.9257 78.5348 93.9253H79.0046C79.0199 93.9257 79.0352 93.923 79.0494 93.9173C79.0637 93.9117 79.0766 93.9032 79.0875 93.8923C79.0983 93.8815 79.1068 93.8685 79.1125 93.8543C79.1182 93.84 79.1209 93.8247 79.1204 93.8094ZM79.1204 94.3481C79.1204 94.3174 79.1082 94.2879 79.0865 94.2662C79.0648 94.2444 79.0353 94.2322 79.0046 94.2322H78.5348C78.5177 94.2294 78.5003 94.2304 78.4837 94.235C78.4671 94.2396 78.4516 94.2478 78.4385 94.259C78.4253 94.2701 78.4148 94.284 78.4075 94.2997C78.4003 94.3154 78.3965 94.3324 78.3965 94.3497C78.3965 94.3669 78.4003 94.384 78.4075 94.3996C78.4148 94.4153 78.4253 94.4292 78.4385 94.4404C78.4516 94.4515 78.4671 94.4597 78.4837 94.4643C78.5003 94.469 78.5177 94.4699 78.5348 94.4671H79.0046C79.0201 94.4671 79.0354 94.464 79.0496 94.458C79.0639 94.452 79.0768 94.4432 79.0876 94.4321C79.0984 94.421 79.1069 94.4078 79.1125 94.3934C79.1182 94.379 79.1209 94.3636 79.1204 94.3481ZM79.1204 94.8868C79.1204 94.8561 79.1082 94.8266 79.0865 94.8048C79.0648 94.7831 79.0353 94.7709 79.0046 94.7709H78.5348C78.5177 94.7681 78.5003 94.7691 78.4837 94.7737C78.4671 94.7783 78.4516 94.7865 78.4385 94.7977C78.4253 94.8088 78.4148 94.8227 78.4075 94.8384C78.4003 94.854 78.3965 94.8711 78.3965 94.8884C78.3965 94.9056 78.4003 94.9227 78.4075 94.9383C78.4148 94.954 78.4253 94.9679 78.4385 94.9791C78.4516 94.9902 78.4671 94.9984 78.4837 95.003C78.5003 95.0077 78.5177 95.0086 78.5348 95.0058H79.0046C79.0201 95.0058 79.0354 95.0027 79.0496 94.9967C79.0639 94.9907 79.0768 94.9819 79.0876 94.9708C79.0984 94.9597 79.1069 94.9465 79.1125 94.9321C79.1182 94.9177 79.1209 94.9023 79.1204 94.8868ZM80.8869 91.1285C80.8869 91.113 80.8838 91.0976 80.8778 91.0834C80.8717 91.0691 80.8629 91.0562 80.8518 91.0454C80.8407 91.0346 80.8276 91.0261 80.8132 91.0205C80.7987 91.0148 80.7833 91.0122 80.7678 91.0126H79.5151C79.4843 91.0126 79.4549 91.0248 79.4331 91.0465C79.4114 91.0682 79.3992 91.0977 79.3992 91.1285C79.4 91.1589 79.4124 91.188 79.434 91.2095C79.4556 91.2311 79.4846 91.2435 79.5151 91.2443H80.7678C80.7843 91.2444 80.8006 91.241 80.8157 91.2345C80.8308 91.2279 80.8443 91.2183 80.8555 91.2062C80.8667 91.1942 80.8753 91.1799 80.8807 91.1644C80.886 91.1488 80.8882 91.1323 80.8869 91.1159V91.1285ZM80.8869 91.6672C80.8869 91.6517 80.8838 91.6363 80.8778 91.6221C80.8717 91.6078 80.8629 91.5949 80.8518 91.5841C80.8407 91.5733 80.8276 91.5648 80.8132 91.5592C80.7987 91.5535 80.7833 91.5509 80.7678 91.5513H79.5151C79.4843 91.5513 79.4549 91.5635 79.4331 91.5852C79.4114 91.6069 79.3992 91.6364 79.3992 91.6672C79.4 91.6976 79.4124 91.7266 79.434 91.7482C79.4556 91.7698 79.4846 91.7822 79.5151 91.783H80.7678C80.7843 91.7831 80.8006 91.7797 80.8157 91.7732C80.8308 91.7666 80.8443 91.757 80.8555 91.7449C80.8667 91.7329 80.8753 91.7186 80.8807 91.7031C80.886 91.6875 80.8882 91.671 80.8869 91.6546V91.6672ZM80.8869 92.2058C80.886 92.1748 80.8731 92.1454 80.8509 92.1237C80.8287 92.1021 80.7989 92.09 80.7678 92.09H79.5151C79.4846 92.0908 79.4556 92.1032 79.434 92.1248C79.4124 92.1463 79.4 92.1754 79.3992 92.2058C79.3992 92.2366 79.4114 92.2661 79.4331 92.2878C79.4549 92.3095 79.4843 92.3217 79.5151 92.3217H80.7678C80.7844 92.3223 80.801 92.3192 80.8163 92.3129C80.8316 92.3065 80.8454 92.2969 80.8567 92.2847C80.8679 92.2725 80.8765 92.258 80.8817 92.2423C80.8869 92.2265 80.8887 92.2098 80.8869 92.1933V92.2058ZM80.8869 92.7445C80.886 92.7135 80.8731 92.684 80.8509 92.6624C80.8287 92.6408 80.7989 92.6286 80.7678 92.6287H79.5151C79.4846 92.6295 79.4556 92.6419 79.434 92.6635C79.4124 92.685 79.4 92.7141 79.3992 92.7445C79.3992 92.7753 79.4114 92.8047 79.4331 92.8265C79.4549 92.8482 79.4843 92.8604 79.5151 92.8604H80.7678C80.7844 92.861 80.801 92.8579 80.8163 92.8516C80.8316 92.8452 80.8454 92.8356 80.8567 92.8234C80.8679 92.8112 80.8765 92.7967 80.8817 92.781C80.8869 92.7652 80.8887 92.7485 80.8869 92.732V92.7445ZM80.8869 93.2832C80.886 93.2522 80.8731 93.2227 80.8509 93.2011C80.8287 93.1794 80.7989 93.1673 80.7678 93.1674H79.5151C79.4846 93.1681 79.4556 93.1806 79.434 93.2022C79.4124 93.2237 79.4 93.2528 79.3992 93.2832C79.3992 93.314 79.4114 93.3434 79.4331 93.3652C79.4549 93.3869 79.4843 93.3991 79.5151 93.3991H80.7678C80.7844 93.3997 80.801 93.3966 80.8163 93.3902C80.8316 93.3839 80.8454 93.3742 80.8567 93.3621C80.8679 93.3499 80.8765 93.3354 80.8817 93.3197C80.8869 93.3039 80.8887 93.2872 80.8869 93.2707V93.2832ZM82.3683 93.8219C82.3675 93.7914 82.355 93.7624 82.3335 93.7409C82.3119 93.7193 82.2829 93.7068 82.2524 93.706H80.9996C80.9691 93.7068 80.9401 93.7193 80.9185 93.7409C80.897 93.7624 80.8845 93.7914 80.8837 93.8219C80.8837 93.8527 80.8959 93.8821 80.9177 93.9039C80.9394 93.9256 80.9689 93.9378 80.9996 93.9378H82.2524C82.27 93.9403 82.2879 93.9388 82.3048 93.9333C82.3217 93.9278 82.3371 93.9184 82.3498 93.906C82.3625 93.8936 82.3722 93.8784 82.3781 93.8617C82.384 93.8449 82.386 93.827 82.3839 93.8094L82.3683 93.8219ZM82.3683 94.3606C82.3675 94.3301 82.355 94.3011 82.3335 94.2796C82.3119 94.258 82.2829 94.2455 82.2524 94.2447H80.9996C80.9718 94.2493 80.9464 94.2636 80.9282 94.2851C80.9099 94.3067 80.8998 94.334 80.8998 94.3622C80.8998 94.3904 80.9099 94.4177 80.9282 94.4392C80.9464 94.4608 80.9718 94.4751 80.9996 94.4796H82.2524C82.2701 94.4816 82.2881 94.4796 82.305 94.4737C82.3219 94.4678 82.3372 94.4582 82.3498 94.4455C82.3625 94.4329 82.3721 94.4176 82.378 94.4007C82.3839 94.3838 82.3859 94.3659 82.3839 94.3481L82.3683 94.3606ZM82.3683 94.8993C82.3675 94.8688 82.355 94.8398 82.3335 94.8182C82.3119 94.7967 82.2829 94.7842 82.2524 94.7834H80.9996C80.9718 94.788 80.9464 94.8023 80.9282 94.8238C80.9099 94.8453 80.8998 94.8727 80.8998 94.9009C80.8998 94.9291 80.9099 94.9564 80.9282 94.9779C80.9464 94.9994 80.9718 95.0138 80.9996 95.0183H82.2524C82.2701 95.0203 82.2881 95.0183 82.305 95.0124C82.3219 95.0065 82.3372 94.9968 82.3498 94.9842C82.3625 94.9716 82.3721 94.9563 82.378 94.9394C82.3839 94.9225 82.3859 94.9045 82.3839 94.8868L82.3683 94.8993ZM81.4287 91.141C81.4287 91.1053 81.4145 91.071 81.3892 91.0458C81.364 91.0205 81.3297 91.0063 81.294 91.0063C81.2583 91.0063 81.224 91.0205 81.1988 91.0458C81.1735 91.071 81.1593 91.1053 81.1593 91.141C81.1593 91.1767 81.1735 91.211 81.1988 91.2362C81.224 91.2615 81.2583 91.2757 81.294 91.2757C81.3153 91.2786 81.3369 91.2764 81.3572 91.2692C81.3774 91.262 81.3956 91.2502 81.4103 91.2345C81.425 91.2189 81.4358 91.2 81.4417 91.1794C81.4476 91.1587 81.4485 91.137 81.4443 91.1159L81.4287 91.141ZM81.8358 91.141C81.8358 91.1053 81.8217 91.071 81.7964 91.0458C81.7711 91.0205 81.7369 91.0063 81.7012 91.0063C81.6655 91.0063 81.6312 91.0205 81.6059 91.0458C81.5807 91.071 81.5665 91.1053 81.5665 91.141C81.5665 91.1767 81.5807 91.211 81.6059 91.2362C81.6312 91.2615 81.6655 91.2757 81.7012 91.2757C81.7212 91.276 81.741 91.2719 81.7592 91.2636C81.7774 91.2553 81.7936 91.2431 81.8065 91.2278C81.8194 91.2125 81.8287 91.1945 81.8338 91.1752C81.8389 91.1558 81.8396 91.1356 81.8358 91.1159V91.141ZM82.2399 91.141C82.2399 91.1053 82.2257 91.071 82.2004 91.0458C82.1752 91.0205 82.1409 91.0063 82.1052 91.0063C82.0695 91.0063 82.0352 91.0205 82.01 91.0458C81.9847 91.071 81.9705 91.1053 81.9705 91.141C81.9705 91.1767 81.9847 91.211 82.01 91.2362C82.0352 91.2615 82.0695 91.2757 82.1052 91.2757C82.1252 91.276 82.145 91.2719 82.1632 91.2636C82.1815 91.2553 82.1976 91.2431 82.2105 91.2278C82.2234 91.2125 82.2327 91.1945 82.2378 91.1752C82.2429 91.1558 82.2436 91.1356 82.2399 91.1159V91.141ZM82.6439 91.141C82.6439 91.1053 82.6297 91.071 82.6044 91.0458C82.5792 91.0205 82.5449 91.0063 82.5092 91.0063C82.4735 91.0063 82.4392 91.0205 82.414 91.0458C82.3887 91.071 82.3745 91.1053 82.3745 91.141C82.3745 91.1767 82.3887 91.211 82.414 91.2362C82.4392 91.2615 82.4735 91.2757 82.5092 91.2757C82.5292 91.276 82.549 91.2719 82.5673 91.2636C82.5855 91.2553 82.6016 91.2431 82.6145 91.2278C82.6274 91.2125 82.6368 91.1945 82.6418 91.1752C82.6469 91.1558 82.6476 91.1356 82.6439 91.1159V91.141ZM83.0479 91.141C83.0479 91.1053 83.0337 91.071 83.0085 91.0458C82.9832 91.0205 82.9489 91.0063 82.9132 91.0063C82.8775 91.0063 82.8433 91.0205 82.818 91.0458C82.7927 91.071 82.7786 91.1053 82.7786 91.141C82.7786 91.1767 82.7927 91.211 82.818 91.2362C82.8433 91.2615 82.8775 91.2757 82.9132 91.2757C82.9332 91.276 82.9531 91.2719 82.9713 91.2636C82.9895 91.2553 83.0057 91.2431 83.0186 91.2278C83.0314 91.2125 83.0408 91.1945 83.0458 91.1752C83.0509 91.1558 83.0516 91.1356 83.0479 91.1159V91.141ZM83.4519 91.141C83.4519 91.1144 83.444 91.0883 83.4292 91.0662C83.4144 91.044 83.3934 91.0268 83.3688 91.0166C83.3442 91.0064 83.3171 91.0037 83.291 91.0089C83.2649 91.0141 83.2409 91.0269 83.222 91.0458C83.2032 91.0646 83.1904 91.0886 83.1852 91.1147C83.18 91.1408 83.1826 91.1679 83.1928 91.1925C83.203 91.2171 83.2203 91.2382 83.2424 91.253C83.2646 91.2678 83.2906 91.2757 83.3173 91.2757C83.3373 91.276 83.3571 91.2719 83.3753 91.2636C83.3935 91.2553 83.4097 91.2431 83.4226 91.2278C83.4355 91.2125 83.4448 91.1945 83.4499 91.1752C83.4549 91.1558 83.4557 91.1356 83.4519 91.1159V91.141ZM81.4443 92.1933C81.4443 92.1576 81.4302 92.1233 81.4049 92.0981C81.3796 92.0728 81.3454 92.0586 81.3097 92.0586C81.274 92.0586 81.2397 92.0728 81.2144 92.0981C81.1892 92.1233 81.175 92.1576 81.175 92.1933C81.175 92.229 81.1892 92.2633 81.2144 92.2885C81.2397 92.3138 81.274 92.328 81.3097 92.328C81.3454 92.328 81.3796 92.3138 81.4049 92.2885C81.4302 92.2633 81.4443 92.229 81.4443 92.1933ZM81.8515 92.1933C81.8515 92.1576 81.8373 92.1233 81.8121 92.0981C81.7868 92.0728 81.7525 92.0586 81.7168 92.0586C81.6811 92.0586 81.6469 92.0728 81.6216 92.0981C81.5963 92.1233 81.5822 92.1576 81.5822 92.1933C81.5822 92.229 81.5963 92.2633 81.6216 92.2885C81.6469 92.3138 81.6811 92.328 81.7168 92.328C81.7498 92.3241 81.7801 92.3083 81.8021 92.2834C81.824 92.2586 81.8361 92.2265 81.8358 92.1933H81.8515ZM82.2555 92.1933C82.2555 92.1576 82.2413 92.1233 82.2161 92.0981C82.1908 92.0728 82.1566 92.0586 82.1209 92.0586C82.0851 92.0586 82.0509 92.0728 82.0256 92.0981C82.0004 92.1233 81.9862 92.1576 81.9862 92.1933C81.9862 92.229 82.0004 92.2633 82.0256 92.2885C82.0509 92.3138 82.0851 92.328 82.1209 92.328C82.1538 92.3241 82.1841 92.3083 82.2061 92.2834C82.2281 92.2586 82.2401 92.2265 82.2399 92.1933H82.2555ZM82.6595 92.1933C82.6595 92.1576 82.6454 92.1233 82.6201 92.0981C82.5948 92.0728 82.5606 92.0586 82.5249 92.0586C82.4892 92.0586 82.4549 92.0728 82.4296 92.0981C82.4044 92.1233 82.3902 92.1576 82.3902 92.1933C82.3902 92.229 82.4044 92.2633 82.4296 92.2885C82.4549 92.3138 82.4892 92.328 82.5249 92.328C82.5578 92.3241 82.5882 92.3083 82.6101 92.2834C82.6321 92.2586 82.6441 92.2265 82.6439 92.1933H82.6595ZM83.0636 92.1933C83.0636 92.1576 83.0494 92.1233 83.0241 92.0981C82.9989 92.0728 82.9646 92.0586 82.9289 92.0586C82.8932 92.0586 82.8589 92.0728 82.8337 92.0981C82.8084 92.1233 82.7942 92.1576 82.7942 92.1933C82.7942 92.229 82.8084 92.2633 82.8337 92.2885C82.8589 92.3138 82.8932 92.328 82.9289 92.328C82.9618 92.3241 82.9922 92.3083 83.0141 92.2834C83.0361 92.2586 83.0481 92.2265 83.0479 92.1933H83.0636ZM83.4676 92.1933C83.4676 92.1667 83.4597 92.1406 83.4449 92.1185C83.4301 92.0963 83.4091 92.0791 83.3844 92.0689C83.3598 92.0587 83.3328 92.056 83.3066 92.0612C83.2805 92.0664 83.2565 92.0793 83.2377 92.0981C83.2189 92.1169 83.206 92.1409 83.2008 92.167C83.1956 92.1932 83.1983 92.2202 83.2085 92.2449C83.2187 92.2695 83.2359 92.2905 83.2581 92.3053C83.2802 92.3201 83.3063 92.328 83.3329 92.328C83.3659 92.3241 83.3962 92.3083 83.4182 92.2834C83.4401 92.2586 83.4522 92.2265 83.4519 92.1933H83.4676ZM82.8255 93.7436C82.8255 93.7079 82.8113 93.6737 82.7861 93.6484C82.7608 93.6231 82.7266 93.609 82.6909 93.609C82.6551 93.609 82.6209 93.6231 82.5956 93.6484C82.5704 93.6737 82.5562 93.7079 82.5562 93.7436C82.5562 93.7793 82.5704 93.8136 82.5956 93.8389C82.6209 93.8641 82.6551 93.8783 82.6909 93.8783C82.7238 93.8744 82.7542 93.8586 82.7761 93.8337C82.7981 93.8089 82.8101 93.7768 82.8099 93.7436H82.8255ZM83.2327 93.7436C83.2333 93.7163 83.2258 93.6893 83.211 93.6662C83.1962 93.6432 83.1749 93.625 83.1498 93.6141C83.1247 93.6032 83.0969 93.6 83.07 93.605C83.043 93.6099 83.0182 93.6228 82.9986 93.6419C82.979 93.6611 82.9656 93.6856 82.96 93.7124C82.9544 93.7393 82.957 93.7671 82.9673 93.7925C82.9776 93.8178 82.9953 93.8396 83.018 93.8548C83.0407 93.8701 83.0675 93.8783 83.0949 93.8783C83.1281 93.8745 83.1588 93.8587 83.1813 93.834C83.2038 93.8092 83.2165 93.7771 83.217 93.7436H83.2327ZM83.6367 93.7436C83.6367 93.7079 83.6225 93.6737 83.5973 93.6484C83.572 93.6231 83.5378 93.609 83.502 93.609C83.4663 93.609 83.4321 93.6231 83.4068 93.6484C83.3815 93.6737 83.3674 93.7079 83.3674 93.7436C83.3674 93.7793 83.3815 93.8136 83.4068 93.8389C83.4321 93.8641 83.4663 93.8783 83.502 93.8783C83.5378 93.8783 83.572 93.8641 83.5973 93.8389C83.6225 93.8136 83.6367 93.7793 83.6367 93.7436ZM84.0407 93.7436C84.0407 93.7079 84.0265 93.6737 84.0013 93.6484C83.976 93.6231 83.9418 93.609 83.9061 93.609C83.8703 93.609 83.8361 93.6231 83.8108 93.6484C83.7856 93.6737 83.7714 93.7079 83.7714 93.7436C83.7714 93.7793 83.7856 93.8136 83.8108 93.8389C83.8361 93.8641 83.8703 93.8783 83.9061 93.8783C83.939 93.8744 83.9694 93.8586 83.9913 93.8337C84.0133 93.8089 84.0253 93.7768 84.0251 93.7436H84.0407ZM84.4447 93.7436C84.4447 93.7079 84.4306 93.6737 84.4053 93.6484C84.3801 93.6231 84.3458 93.609 84.3101 93.609C84.2744 93.609 84.2401 93.6231 84.2149 93.6484C84.1896 93.6737 84.1754 93.7079 84.1754 93.7436C84.1754 93.7793 84.1896 93.8136 84.2149 93.8389C84.2401 93.8641 84.2744 93.8783 84.3101 93.8783C84.343 93.8744 84.3734 93.8586 84.3953 93.8337C84.4173 93.8089 84.4293 93.7768 84.4291 93.7436H84.4447ZM84.8488 93.7436C84.8488 93.717 84.8409 93.691 84.8261 93.6688C84.8113 93.6467 84.7902 93.6294 84.7656 93.6192C84.741 93.609 84.7139 93.6063 84.6878 93.6115C84.6617 93.6167 84.6377 93.6296 84.6189 93.6484C84.6 93.6672 84.5872 93.6912 84.582 93.7174C84.5768 93.7435 84.5795 93.7706 84.5897 93.7952C84.5999 93.8198 84.6171 93.8408 84.6393 93.8556C84.6614 93.8704 84.6875 93.8783 84.7141 93.8783C84.747 93.8744 84.7774 93.8586 84.7994 93.8337C84.8213 93.8089 84.8333 93.7768 84.8331 93.7436H84.8488ZM82.8255 94.8555C82.8255 94.8198 82.8113 94.7855 82.7861 94.7602C82.7608 94.735 82.7266 94.7208 82.6909 94.7208C82.6551 94.7208 82.6209 94.735 82.5956 94.7602C82.5704 94.7855 82.5562 94.8198 82.5562 94.8555C82.557 94.8909 82.5714 94.9247 82.5965 94.9498C82.6216 94.9749 82.6554 94.9893 82.6909 94.9901C82.7238 94.9863 82.7542 94.9704 82.7761 94.9456C82.7981 94.9207 82.8101 94.8886 82.8099 94.8555H82.8255ZM83.2327 94.8555C83.2277 94.8229 83.2113 94.7932 83.1863 94.7717C83.1613 94.7502 83.1294 94.7384 83.0964 94.7384C83.0635 94.7384 83.0316 94.7502 83.0066 94.7717C82.9816 94.7932 82.9652 94.8229 82.9602 94.8555C82.9652 94.8881 82.9816 94.9178 83.0066 94.9393C83.0316 94.9607 83.0635 94.9726 83.0964 94.9726C83.1294 94.9726 83.1613 94.9607 83.1863 94.9393C83.2113 94.9178 83.2277 94.8881 83.2327 94.8555ZM83.6367 94.8555C83.6367 94.8378 83.6332 94.8203 83.6265 94.8039C83.6197 94.7876 83.6098 94.7727 83.5973 94.7602C83.5848 94.7477 83.5699 94.7378 83.5536 94.731C83.5372 94.7243 83.5197 94.7208 83.502 94.7208C83.4663 94.7208 83.4321 94.735 83.4068 94.7602C83.3815 94.7855 83.3674 94.8198 83.3674 94.8555C83.3674 94.8732 83.3708 94.8907 83.3776 94.907C83.3844 94.9233 83.3943 94.9382 83.4068 94.9507C83.4193 94.9632 83.4342 94.9731 83.4505 94.9799C83.4668 94.9867 83.4844 94.9901 83.502 94.9901C83.5375 94.9893 83.5713 94.9749 83.5964 94.9498C83.6215 94.9247 83.6359 94.8909 83.6367 94.8555ZM84.0407 94.8555C84.0407 94.8198 84.0265 94.7855 84.0013 94.7602C83.976 94.735 83.9418 94.7208 83.9061 94.7208C83.8703 94.7208 83.8361 94.735 83.8108 94.7602C83.7856 94.7855 83.7714 94.8198 83.7714 94.8555C83.7714 94.8732 83.7749 94.8907 83.7816 94.907C83.7884 94.9233 83.7983 94.9382 83.8108 94.9507C83.8233 94.9632 83.8382 94.9731 83.8545 94.9799C83.8709 94.9867 83.8884 94.9901 83.9061 94.9901C83.9387 94.9856 83.9687 94.9696 83.9905 94.9449C84.0124 94.9202 84.0246 94.8884 84.0251 94.8555H84.0407ZM84.4447 94.8555C84.4447 94.8198 84.4306 94.7855 84.4053 94.7602C84.3801 94.735 84.3458 94.7208 84.3101 94.7208C84.2744 94.7208 84.2401 94.735 84.2149 94.7602C84.1896 94.7855 84.1754 94.8198 84.1754 94.8555C84.1754 94.8732 84.1789 94.8907 84.1857 94.907C84.1924 94.9233 84.2023 94.9382 84.2149 94.9507C84.2274 94.9632 84.2422 94.9731 84.2585 94.9799C84.2749 94.9867 84.2924 94.9901 84.3101 94.9901C84.3427 94.9856 84.3727 94.9696 84.3946 94.9449C84.4164 94.9202 84.4286 94.8884 84.4291 94.8555H84.4447ZM84.8488 94.8555C84.8488 94.8198 84.8346 94.7855 84.8093 94.7602C84.7841 94.735 84.7498 94.7208 84.7141 94.7208C84.6784 94.7208 84.6441 94.735 84.6189 94.7602C84.5936 94.7855 84.5794 94.8198 84.5794 94.8555C84.5794 94.8912 84.5936 94.9254 84.6189 94.9507C84.6441 94.9759 84.6784 94.9901 84.7141 94.9901C84.7498 94.9901 84.7841 94.9759 84.8093 94.9507C84.8346 94.9254 84.8488 94.8912 84.8488 94.8555Z" fill="#263238"/>
<path d="M61.3017 84.4717C61.3017 84.4717 59.338 79.8865 57.6154 79.8865C55.8928 79.8865 55.9774 83.7357 57.0423 85.784C58.1071 87.8322 60.4028 88.6497 61.0574 87.422" fill="white"/>
<path d="M61.3017 84.4717C61.3017 84.4717 59.338 79.8865 57.6154 79.8865C55.8928 79.8865 55.9774 83.7357 57.0423 85.784C58.1071 87.8322 60.4028 88.6497 61.0574 87.422" fill="url(#paint6_linear_6_3805)"/>
<path opacity="0.5" d="M61.3017 84.4717C61.3017 84.4717 59.338 79.8865 57.6154 79.8865C55.8928 79.8865 55.9774 83.7357 57.0423 85.784C58.1071 87.8322 60.4028 88.6497 61.0574 87.422" fill="white"/>
<path d="M61.3017 84.4717C61.3017 84.4717 59.338 79.8865 57.6154 79.8865C55.8928 79.8865 55.9774 83.7357 57.0423 85.784C58.1071 87.8322 60.4028 88.6497 61.0574 87.422" stroke="#263238" stroke-width="0.313194" stroke-linecap="round" stroke-linejoin="round"/>
<path d="M57.045 82.6833C57.045 82.6833 56.7944 80.6883 57.7434 81.0391C58.6924 81.3898 59.7885 84.5312 59.7885 84.5312C59.7885 84.5312 58.9899 83.6824 59.0901 84.4811C59.1027 84.6934 59.1896 84.8945 59.3356 85.0491C59.4817 85.2038 59.6775 85.302 59.8888 85.3267" stroke="#263238" stroke-width="0.313194" stroke-linecap="round" stroke-linejoin="round"/>
<path d="M127.005 98.697H88.1779L81.5476 125.35H120.377L127.005 98.697Z" fill="#263238" stroke="#263238" stroke-width="0.313194" stroke-linecap="round" stroke-linejoin="round"/>
<path d="M119.97 125.35H62.0667V127.245H119.97V125.35Z" fill="#263238" stroke="#263238" stroke-width="0.313194" stroke-linecap="round" stroke-linejoin="round"/>
<path d="M120.377 125.35H81.5476V127.245H120.377V125.35Z" fill="url(#paint7_linear_6_3805)" stroke="#263238" stroke-width="0.313194" stroke-linecap="round" stroke-linejoin="round"/>
<path d="M127.437 98.697H88.6067L81.9764 125.35H120.806L127.437 98.697Z" fill="url(#paint8_linear_6_3805)" stroke="#263238" stroke-width="0.313194" stroke-linecap="round" stroke-linejoin="round"/>
<path d="M104.486 118.015C107.544 118.015 110.023 115.559 110.023 112.531C110.023 109.502 107.544 107.047 104.486 107.047C101.428 107.047 98.9486 109.502 98.9486 112.531C98.9486 115.559 101.428 118.015 104.486 118.015Z" fill="#263238"/>
<path d="M99.9854 113.376C99.9273 113.35 99.8752 113.313 99.8321 113.266C99.7891 113.219 99.756 113.164 99.7348 113.104C99.6833 112.975 99.6833 112.832 99.7348 112.703C99.7629 112.632 99.8051 112.568 99.859 112.514C99.9129 112.46 99.9772 112.418 100.048 112.39L102.394 111.45C102.472 111.416 102.554 111.45 102.641 111.554C102.719 111.641 102.766 111.75 102.776 111.867C102.778 111.923 102.764 111.978 102.736 112.026C102.707 112.074 102.666 112.114 102.616 112.139L100.649 112.903L102.622 113.696C102.664 113.724 102.697 113.762 102.719 113.807C102.74 113.853 102.749 113.903 102.745 113.953C102.741 114.066 102.701 114.176 102.632 114.266C102.557 114.366 102.482 114.401 102.403 114.369L99.9854 113.376Z" fill="white"/>
<path d="M103.646 114.689C103.614 114.663 103.588 114.63 103.57 114.592C103.553 114.555 103.545 114.514 103.546 114.473C103.56 114.36 103.585 114.248 103.621 114.141L104.924 110.382C105.005 110.1 105.121 109.959 105.272 109.959C105.354 109.958 105.434 109.987 105.497 110.041C105.528 110.072 105.552 110.108 105.567 110.149C105.583 110.189 105.59 110.232 105.588 110.276C105.58 110.383 105.556 110.489 105.516 110.589L104.153 114.567C104.138 114.63 104.101 114.686 104.049 114.724C103.997 114.763 103.933 114.783 103.868 114.78C103.786 114.777 103.707 114.745 103.646 114.689Z" fill="white"/>
<path d="M106.205 114.282C106.136 114.192 106.096 114.082 106.093 113.968C106.088 113.918 106.097 113.868 106.119 113.823C106.14 113.778 106.173 113.739 106.215 113.711L108.188 112.919L106.221 112.155C106.171 112.129 106.13 112.09 106.102 112.042C106.073 111.994 106.059 111.938 106.061 111.882C106.071 111.766 106.118 111.656 106.196 111.569C106.284 111.466 106.365 111.431 106.443 111.466L108.789 112.405C108.902 112.45 108.999 112.529 109.065 112.631C109.125 112.718 109.156 112.82 109.156 112.925C109.152 113.024 109.124 113.119 109.074 113.204C109.028 113.288 108.956 113.354 108.868 113.392L106.434 114.404C106.356 114.416 106.281 114.382 106.205 114.282Z" fill="white"/>
<path d="M141.877 126.825H16.1826V128.704H141.877V126.825Z" fill="white" stroke="#263238" stroke-width="0.313194" stroke-linecap="round" stroke-linejoin="round"/>
<defs>
<linearGradient id="paint0_linear_6_3805" x1="11.3852" y1="80.5799" x2="141.975" y2="80.5799" gradientUnits="userSpaceOnUse">
<stop stop-color="#00F5A0"/>
<stop offset="1" stop-color="#00D9F5"/>
</linearGradient>
<linearGradient id="paint1_linear_6_3805" x1="30.1857" y1="106.262" x2="60.1615" y2="106.262" gradientUnits="userSpaceOnUse">
<stop stop-color="#00F5A0"/>
<stop offset="1" stop-color="#00D9F5"/>
</linearGradient>
<linearGradient id="paint2_linear_6_3805" x1="54.1482" y1="97.4035" x2="60.1522" y2="97.4035" gradientUnits="userSpaceOnUse">
<stop stop-color="#00F5A0"/>
<stop offset="1" stop-color="#00D9F5"/>
</linearGradient>
<linearGradient id="paint3_linear_6_3805" x1="59.3224" y1="91.9742" x2="68.0293" y2="91.9742" gradientUnits="userSpaceOnUse">
<stop stop-color="#00F5A0"/>
<stop offset="1" stop-color="#00D9F5"/>
</linearGradient>
<linearGradient id="paint4_linear_6_3805" x1="58.6766" y1="83.6057" x2="74.662" y2="83.6057" gradientUnits="userSpaceOnUse">
<stop stop-color="#00F5A0"/>
<stop offset="1" stop-color="#00D9F5"/>
</linearGradient>
<linearGradient id="paint5_linear_6_3805" x1="63.4249" y1="83.8171" x2="83.9861" y2="83.8171" gradientUnits="userSpaceOnUse">
<stop stop-color="#00F5A0"/>
<stop offset="1" stop-color="#00D9F5"/>
</linearGradient>
<linearGradient id="paint6_linear_6_3805" x1="56.2755" y1="83.9427" x2="61.3017" y2="83.9427" gradientUnits="userSpaceOnUse">
<stop stop-color="#00F5A0"/>
<stop offset="1" stop-color="#00D9F5"/>
</linearGradient>
<linearGradient id="paint7_linear_6_3805" x1="81.5476" y1="126.297" x2="120.377" y2="126.297" gradientUnits="userSpaceOnUse">
<stop stop-color="#00F5A0"/>
<stop offset="1" stop-color="#00D9F5"/>
</linearGradient>
<linearGradient id="paint8_linear_6_3805" x1="81.9764" y1="112.023" x2="127.437" y2="112.023" gradientUnits="userSpaceOnUse">
<stop stop-color="#00F5A0"/>
<stop offset="1" stop-color="#00D9F5"/>
</linearGradient>
</defs>
</svg>
